<?xml version="1.0" encoding="UTF-8" standalone="no"?>
<!-- Created with Inkscape (http://www.inkscape.org/) -->
<svg xmlns:inkscape="http://www.inkscape.org/namespaces/inkscape" xmlns:rdf="http://www.w3.org/1999/02/22-rdf-syntax-ns#" xmlns="http://www.w3.org/2000/svg" xmlns:cc="http://creativecommons.org/ns#" xmlns:dc="http://purl.org/dc/elements/1.1/" xmlns:sodipodi="http://sodipodi.sourceforge.net/DTD/sodipodi-0.dtd" xmlns:svg="http://www.w3.org/2000/svg" xmlns:ns1="http://sozi.baierouge.fr" id="svg2641" sodipodi:docname="_svgclean2.svg" viewBox="0 0 1140.7 444.01" version="1.0" inkscape:version="0.48.3.1 r9886" xmlns:xlink="http://www.w3.org/1999/xlink">
  <sodipodi:namedview id="namedview8" bordercolor="#666666" inkscape:pageshadow="2" guidetolerance="10" pagecolor="#ffffff" gridtolerance="10" inkscape:window-maximized="0" inkscape:zoom="0.22425739" objecttolerance="10" borderopacity="1" inkscape:current-layer="svg2641" inkscape:cx="372.04724" inkscape:cy="-82.172917" inkscape:window-y="0" inkscape:window-x="0" inkscape:window-width="640" showgrid="false" inkscape:pageopacity="0" inkscape:window-height="480"/>
  <g id="layer1" transform="translate(229.66 102.27)">
    <path id="path2724" style="fill:#000000" inkscape:connector-curvature="0" d="m-128.29 340.82c-1.925-0.51235-14.08-1.0845-27.011-1.2714-14.321-0.20701-24.679-0.78492-26.5-1.4785-1.9752-0.75246-6.1082-0.90551-12.185-0.45123-8.1529 0.60947-9.5709 0.46136-12.5-1.3057-1.8172-1.0962-4.9458-2.2848-6.9525-2.6412-7.1394-1.2679-11.472-7.0701-13.79-18.466-2.0839-10.247-0.79852-40.099 2.7776-64.509 0.47378-3.234 0.48905-9.984 0.0339-15-2.2456-24.749-3.6082-115.41-1.9964-132.83 0.62521-6.757 1.1704-17.858 1.2117-24.67 0.0412-6.8114 0.44461-18.709 0.89646-26.44 0.51703-8.8456 0.45809-15.004-0.15901-16.616-0.5393-1.4082-1.1715-6.6104-1.4049-11.56-0.23337-4.95-0.60193-10.8-0.81901-13-0.21707-2.2-0.50059-7.9438-0.63002-12.764-0.12944-4.8202-0.61967-10.821-1.0894-13.336-0.46974-2.5144-0.48104-6.2319-0.0251-8.261 0.52107-2.3191 0.43607-4.3123-0.22883-5.3664-1.2769-2.0244-0.77454-2.644 2.4332-3.0013 2.3076-0.25701 2.4544 0.04097 2.7406 5.5628 0.16633 3.2089-0.15943 6.3909-0.72392 7.071-0.70592 0.85058-0.58929 4.5663 0.37358 11.902 0.96541 7.355 1.1283 12.587 0.52474 16.857-0.48134 3.4053-0.57682 6.674-0.21218 7.2638 0.36463 0.58974 0.75531 4.7462 0.86818 9.2367 0.11286 4.4904 0.63899 8.9904 1.1692 10 0.63699 1.213 0.52911 4.5492-0.31802 9.8356-2.3531 14.684-2.7449 131.14-0.55354 164.5 1.8383 27.987 1.7932 40.364-0.19932 54.694-2.2427 16.129-1.678 37.5 1.2404 46.949 1.1156 3.612 2.0284 7.3252 2.0284 8.2515 0 1.0564 2.5761 3.0756 6.911 5.417 6.5478 3.5366 7.7435 3.8142 22.75 5.2808 8.7114 0.85137 25.964 1.5871 38.339 1.6349 21.421 0.0828 22.71-0.0204 26.869-2.1514 3.131-1.604 4.6753-1.932 5.45-1.1573 3.9011 3.9011 4.6559-1.9832 0.79524-6.1989-1.4002-1.529-2.6034-4.004-2.6738-5.5s-0.19828-4.6325-0.28421-6.97c-0.10153-2.7622-0.5855-4.1625-1.3825-4-2.5174 0.51322-1.8003-4.491 1.7194-12 6.0244-12.853 8.889-18.25 9.6872-18.25 0.41697 0 2.2763-2.3733 4.1319-5.2741 1.8556-2.9007 6.1444-7.7813 9.5307-10.846 3.3863-3.0644 6.157-6.0365 6.157-6.6046s1.3353-1.586 2.9672-2.262c2.0144-0.83437 3.6489-2.7198 5.09-5.8713 1.2811-2.8016 3.7885-5.881 6.3241-7.7666 2.4231-1.802 7.0772-7.4168 10.996-13.266 3.737-5.5777 8.5193-11.589 10.627-13.359 3.5893-3.0134 3.7494-3.3776 2.5206-5.7344-2.9376-5.634-7.3893-16.734-8.0275-20.017-1.8298-9.4108-13.724-20.006-21.498-19.15-0.825 0.0908-6.45 0.39484-12.5 0.67563-6.05 0.28078-11.675 0.5634-12.5 0.62804-6.0598 0.47474-19.963-0.63895-22.2-1.7783-1.485-0.75629-5.085-1.8817-8-2.5009-6.6103-1.4041-20.942-7.782-29.391-13.079-3.7572-2.3558-7.0488-3.7636-7.9716-3.4095-0.86451 0.33174-3.4541-0.2519-5.7547-1.297s-6.4328-2.2054-9.1828-2.5784c-9.2392-1.2534-10.431-2.1068-5.8865-4.216 2.1558-1.0006 3.4555-0.87988 7.6382 0.70943 2.7722 1.0534 7.5622 2.4346 10.644 3.0695 3.0822 0.63484 8.5289 2.6512 12.104 4.4807 3.575 1.8296 7.85 3.6311 9.5 4.0035 1.65 0.37234 4.6601 1.9735 6.6892 3.558 3.12 2.4366 4.6974 2.9088 10.225 3.0612 5.4614 0.15047 6.8673 0.56163 8.5542 2.5018 1.893 2.1772 4.7815 3.3435 3.618 1.4609-0.60566-0.97998 13.377-1.2841 14.912-0.32434 1.42 0.88802 7.4947 1.0067 8.02 0.15668 0.24109-0.39009 2.7895-0.76222 5.6631-0.82696 3.5299-0.0795 5.4995-0.60865 6.0717-1.6312 1.1103-1.984 2.7476-1.9396 2.7476 0.0745 0 1.2915 0.72738 1.465 3.8974 0.92944 2.1436-0.36215 4.1551-0.24147 4.4701 0.26818 0.31498 0.50966 2.7237 0.72105 5.3526 0.46976 3.6555-0.3494 6.1326 0.142 10.53 2.0889 7.1718 3.1753 7.4723 4.7656 0.75 3.9694-3.1101-0.36835-5-0.20783-5 0.42467 0 1.7414 2.6259 3.2973 5.1029 3.0236 1.6459-0.18188 2.6751 0.42522 3.3704 1.9882 0.55054 1.2375 1.5693 2.25 2.2638 2.25 0.69458 0 1.2629 0.6375 1.2629 1.4167 0 0.77916 0.48753 1.5792 1.0834 1.7778 0.59587 0.19862 1.1803 2.2455 1.2986 4.5486 0.11837 2.3031 0.52265 4.4949 0.89838 4.8706 0.37573 0.37574 0.43884 1.6566 0.14023 2.8463-0.40733 1.6229 0.07707 2.4457 1.9396 3.2943 1.8237 0.83095 2.3397 1.677 1.9445 3.1884-0.35949 1.3747-0.05906 2.0573 0.90545 2.0573 1.035 0 1.3188 0.84889 1.0031 3-0.28402 1.9352-0.0071 3 0.78018 3 0.67127 0 0.97516 0.63931 0.67532 1.4207-0.29984 0.78138 0.43951 2.4896 1.643 3.7961 1.5804 1.7156 2.2248 3.7514 2.32 7.3293 0.19415 7.2977 4.7537 19.958 9.4076 26.122 4.3567 5.7704 8.2676 8.3315 12.722 8.3315 1.5736 0 3.8692 0.93921 5.1014 2.0871 1.4657 1.3655 2.8275 1.8327 3.9386 1.3513 0.93405-0.40471 2.6814-0.64056 3.8831-0.52412 1.2016 0.11644 5.0266-0.46307 8.5-1.2878s7.4175-1.4156 8.7648-1.313c1.6508 0.12567 2.8211-0.54502 3.5888-2.0566 0.62651-1.2337 1.9635-3.154 2.971-4.2674 1.7759-1.9624 1.7756-2.3705-0.009-13.354-1.8563-11.425-3.2768-14.501-7.9184-17.148-0.97629-0.55668-2.8453-3.6427-4.1533-6.8578-1.3081-3.2151-4.8297-8.842-7.8258-12.504-2.9962-3.6622-5.7374-8.0012-6.0916-9.6422l-0.6441-2.9836 2.5377 2.9804c2.4317 2.856 2.5953 2.9016 3.9182 1.0924 1.2591-1.7219 2.3655-1.8361 12.574-1.2975 8.0464 0.42448 12.376 1.142 15.398 2.552 3.2695 1.5253 7.2435 2.0856 17.872 2.5194 14.933 0.60954 19.207 1.7718 22.661 6.1627 2.7872 3.5434 3.9134 7.9761 4.6975 18.491 0.54664 7.3298 0.97473 8.8098 3.1096 10.75 2.5702 2.3358 5.3642 2.9869 5.3642 1.25 0-0.55 1.2375-1.0052 2.75-1.0115 2.2066-0.009 3.1198-0.78352 4.6213-3.9186 1.0779-2.2505 5.2169-6.8036 9.762-10.739 4.9368-4.2741 10.014-9.9544 13.564-15.174 3.5779-5.2614 8.467-10.72 13.238-14.781 4.1607-3.5412 7.9143-6.7621 8.3413-7.1576 1.7897-1.6578 5.5794-6.6334 7.8203-10.268 1.3219-2.1438 3.1909-3.9098 4.1534-3.9246s1.75-0.45595 1.75-0.98034c0-0.90285 8.7661-10.047 9.6317-10.047 0.22444 0 2.3116-1.2205 4.6382-2.7122s5.4139-3.4042 6.8607-4.25c1.4468-0.84576 5.8617-3.6898 9.8108-6.3202 3.9492-2.6303 8.966-5.497 11.149-6.3702 2.1826-0.8733 4.4433-2.4753 5.0238-3.56 1.1802-2.2053 10.733-6.7852 14.165-6.791 1.2218-0.002 3.6949-0.90205 5.4957-2 1.8008-1.0979 5.0152-1.9963 7.143-1.9963 2.4226 0 4.0729-0.53169 4.4147-1.4224 0.31633-0.82433 1.3484-1.2125 2.4546-0.92323 1.0498 0.27454 4.1148-0.54789 6.8112-1.8276 6.3033-2.9917 16.171-3.2515 19.205-0.50569 1.9539 1.7682 2.1238 1.7498 5.855-0.63665 2.1135-1.3518 5.1015-3.793 6.64-5.4251l2.7972-2.9674-2.4341-1.5949c-1.3388-0.87719-3.4019-3.1608-4.5848-5.0748-1.405-2.2734-3.2069-3.7118-5.1972-4.149-3.3797-0.74231-8.25-7.3359-9.4482-12.792-0.3748-1.7064-1.5559-4.2854-2.6248-5.7311-3.7506-5.073-4.708-14.321-2.6428-25.529 0.95263-5.1701 0.87445-8.0803-0.43295-16.115-1.2216-7.5075-1.503-14.845-1.201-31.306 0.217-11.825 0.40361-22.85 0.41468-24.5 0.0264-3.9395 2.046-11.605 3.5567-13.5 0.65774-0.825 1.775-3.75 2.4829-6.5 0.70785-2.75 2.0015-6.125 2.8748-7.5 2.0006-3.15 5.6817-10.952 6.6538-14.103 1.0216-3.3114 12.63-18.897 14.076-18.897 0.64656 0 2.4255-1.6388 3.9532-3.6417l2.7777-3.6417-7.4799 0.48003c-4.1139 0.26402-8.5061 0.1004-9.7604-0.3636-3.0632-1.1332-16.426-2.7702-28.078-3.4397-5.225-0.30025-14.45-0.89079-20.5-1.3123-6.05-0.42152-11.428-0.38718-11.95 0.07632-0.5225 0.4635-1.76 0.84273-2.75 0.84273-2.0539 0-2.4258 1.5808-0.55 2.3377 0.6875 0.27741-0.46708 0.53991-2.5657 0.58333-2.0987 0.04342-4.7987-0.44752-6-1.091-1.5319-0.82053-12.091-1.1956-35.357-1.2559-18.245-0.04726-33.495-0.4082-33.889-0.80209-0.39389-0.39388 0.35875-1.1129 1.6725-1.5977 3.3293-1.2287 57.916-1.1862 60.266 0.0469 1.1928 0.626 2.1042 0.63565 2.5 0.02646 0.94731-1.4582 9.9674-2.2116 10.419-0.87032 0.27797 0.825 0.75267 0.81953 1.7908-0.02064 0.99014-0.80131 6.1978-0.98925 17.413-0.62843 8.8 0.28313 18.25 0.37737 21 0.20942 7.3878-0.45118 11.273-0.36897 18.5 0.39142 3.575 0.37615 12.966 0.86082 20.868 1.077 11.254 0.30791 15.153 0.06525 17.989-1.1197 3.0247-1.2638 10.288-1.5184 44.132-1.5468 22.281-0.0187 41.467-0.38494 42.634-0.81388 1.2397-0.4554 2.5654-0.33748 3.1864 0.28344 0.8962 0.8962 39.314 2.4087 50.691 1.9957 1.65-0.0599 15.15-0.34861 30-0.64158 14.85-0.29296 27.45-0.55757 28-0.58802 0.55-0.0305 4.375 0.46872 8.5 1.1093 4.125 0.64055 12.222 1.2397 17.994 1.3314 9.0222 0.14336 10.54 0.40642 10.823 1.8753 0.18096 0.93969 0.97103 1.7085 1.7557 1.7085 0.78468 0 1.3142-0.52279 1.1767-1.1618-0.18554-0.86222 7.4853-1.16 29.75-1.1548 16.5 0.0038 32.925 0.1121 36.5 0.24056 5.44 0.19548 16.419 0.21778 28 0.05687 1.375-0.01911 32.65-0.21011 69.5-0.42444 54.654-0.3179 69.211-0.68955 79-2.017 9.4856-1.2863 20.905-1.6309 54.5-1.6448 44.711-0.0184 57.569 0.52505 62.5 2.6417 1.65 0.70829 4.5949 1.5554 6.5442 1.8824 5.1703 0.86741 12.592 8.7417 13.272 14.081 0.2801 2.2 1.2649 6.475 2.1886 9.5 1.3469 4.4112 1.77 11.142 2.1371 34 0.2518 15.675 0.5316 31.425 0.6218 35 0.2163 8.5745-1.2925 52.685-1.9713 57.63-0.2921 2.1284-0.7203 16.02-0.9515 30.87-0.2311 14.85-0.7398 34.875-1.1304 44.5-0.8963 22.089-0.6435 65.528 0.4539 78 0.8696 9.8822 0.8602 15.435-0.1119 66-0.3225 16.775-0.5673 34.349-0.544 39.053 0.0477 9.62-1.7464 16.103-5.2403 18.937-2.1026 1.7053-4.8408 1.844-37.583 1.9038-19.424 0.0355-36.974 0.49051-39 1.0112-2.0265 0.52066-7.9595 1.4485-13.184 2.0618-5.225 0.61332-15.397 2.2561-22.605 3.6506-13.09 2.5326-13.12 2.5337-26.702 0.95912-7.4786-0.86701-15.981-1.5871-18.895-1.6002-2.9138-0.0131-7.0978-0.48239-9.2978-1.0428-2.2-0.56043-11.223-1.1995-20.052-1.4201-8.8284-0.22062-19.853-0.92087-24.5-1.5561-10.912-1.4917-13.03-1.368-21.448 1.2534-8.3652 2.6047-12.396 2.6546-19.594 0.24226-8.9314-2.9932-24.079-2.6175-36.406 0.90305-10.67 3.0472-19.994 3.6862-27 1.8504-2.2-0.57649-11.425-1.3269-20.5-1.6676s-18.3-1.005-20.5-1.4763c-16.268-3.4846-35.409-6.1384-43.329-6.0074-4.219 0.0698-11.271 1.0372-15.671 2.1498-8.5272 2.1562-11.25 2.7389-24.309 5.2032-32.335 8.9378-34.894-13.871-74.427-2.3417-0.95504 0.51352-8.605 0.97877-17 1.0339-8.395 0.0551-19.764 0.39751-25.264 0.76086s-19.45 0.15368-31-0.46595c-11.55-0.61962-23.7-0.78193-27-0.36069s-13.65 0.7762-23 0.78881c-30.682 0.0414-78.767 1.0231-91 1.8579-6.6 0.4504-26.85 0.62086-45 0.37881-34.282-0.45718-70.563-0.55149-100.34-0.26083-9.5368 0.0931-19.356-0.28254-21.82-0.83473-3.1064-0.69617-5.7303-0.66733-8.5578 0.0941-2.2428 0.60393-14.024 1.3149-26.18 1.5799-12.156 0.26499-24.578 0.54022-27.603 0.61162s-12.25-0.14065-20.5-0.47123c-8.25-0.33057-19.5-0.21636-25 0.25381-18.077 1.5453-21.959 1.6535-25.5 0.71099zm162.5-8.7435c0.33992-0.55-0.08352-1-0.94098-1s-1.559 0.45-1.559 1 0.42344 1 0.94098 1 1.2191-0.45 1.559-1zm770-1.5753c5.5-0.29032 14.389-0.9499 19.753-1.4657 6.6217-0.63673 12.241-0.58473 17.5 0.16197 10.114 1.436 45.374 0.27037 49.976-1.6521 7.093-2.9636 11.21-22.114 9.2301-42.931-0.8886-9.3424 0.1179-29.652 1.7364-35.038 0.3306-1.1 0.5119-4.7721 0.403-8.1601-0.1126-3.5007 0.2622-6.4446 0.8681-6.8191 0.5864-0.36243 0.7916-1.1033 0.456-1.6463-0.7262-1.1751-2.1961-10.331-2.8076-17.488-0.2403-2.8127-0.7064-7.5377-1.0359-10.5-1.0603-9.5343-1.467-19.045-1.4703-34.386-0.002-8.25-0.0378-16.688-0.08-18.75-0.0605-2.9477 0.3027-3.7533 1.6972-3.7653 1.3864-0.012 1.4756-0.20452 0.4078-0.88095-0.9872-0.62541-1.1913-2.0781-0.7356-5.2347 0.347-2.403 0.7494-6.0952 0.8942-8.205 0.1636-2.383 0.9157-4.201 1.9856-4.7997 2.1208-1.1868 2.2509-2.8644 0.2222-2.8644-0.825 0-1.5-0.45-1.5-1s0.45-1 1-1 1-0.675 1-1.5-0.473-1.5-1.051-1.5c-0.7179 0-0.8721-6.1024-0.4866-19.25 0.3105-10.588 0.8074-28.025 1.1043-38.75 0.3071-11.097 1.1237-21.87 1.8951-25 1.7233-6.9929 1.9512-32.972 0.557-63.5-1.5484-33.904-3.373-49.469-6.6943-57.108-0.9309-2.1408-1.5944-4.4354-1.4746-5.0991 0.3855-2.1347-6.1196-4.6063-14.85-5.6422-4.675-0.55473-17.275-1.074-28-1.154-10.725-0.07999-32.728-0.46382-48.896-0.85297-24.302-0.58491-30.194-0.45726-34 0.73656-2.5321 0.79425-8.6537 1.5957-13.604 1.781-14.29 0.53491-93.267 0.20926-137-0.5649-46.327-0.82008-49.546-0.79809-50.952 0.34811-0.57623 0.46962-2.3977 0.6175-4.0477 0.32862-1.65-0.28887-15.6-0.64621-31-0.79408-15.4-0.14788-32.95-0.77958-39-1.4038-22.766-2.3488-27.95-2.558-46.73-1.8855-10.598 0.37953-28.495 0.75213-39.77 0.82802-11.275 0.07588-21.327 0.37056-22.337 0.65485-1.7823 0.50157-1.7823 0.56636 0 2.1862 1.0102 0.9181 3.7701 3.0756 6.1331 4.7944s5.738 5.1242 7.5 7.5676 5.6303 7.1774 8.5963 10.52c4.542 5.1189 5.9048 7.6299 8.6389 15.918 7.367 22.332 8.2369 25.883 8.9027 36.341 0.36771 5.775 1.1649 12.525 1.7715 15 0.60661 2.475 1.1157 10.35 1.1312 17.5 0.0303 13.929-1.4909 22.117-5.9967 32.277-1.2872 2.9025-2.3403 5.6366-2.3403 6.0757 0 0.43909-1.1735 1.8893-2.6079 3.2227-3.9425 3.665-7.4039 12.381-8.9634 22.571-1.6428 10.734-2.4274 13.037-6.4172 18.836l-2.9804 4.3319 2.8285 0.98602c1.5557 0.54231 4.3612 2.3179 6.2345 3.9458 5.9256 5.1493 7.5484 5.6438 10.837 3.3024 3.761-2.6781 7.0745-2.5871 12.878 0.35363 2.6081 1.3216 8.1056 3.4044 12.217 4.6284 4.1111 1.224 9.4998 3.0219 11.975 3.9952 15.288 6.0125 19.104 7.7701 24.454 11.263 3.2749 2.1382 8.5607 5.2033 11.746 6.8114 3.1855 1.608 8.1561 4.7248 11.046 6.9261 2.8896 2.2013 9.5288 6.2473 14.754 8.9912 5.225 2.7438 13.689 7.4404 18.81 10.437 5.1203 2.9963 10.183 5.725 11.25 6.0637 1.0672 0.33872 1.9404 0.98861 1.9404 1.4442 0 0.4556 2.1853 2.2306 4.8562 3.9446 2.6709 1.7139 7.7679 6.1483 11.327 9.8542 13.688 14.254 22.056 21.568 28.385 24.809 3.5556 1.8209 8.1349 4.6873 10.176 6.3699 4.4532 3.6707 7.4965 3.8354 13.357 0.72255 2.4194-1.2852 6.2904-2.5895 8.6021-2.8986 2.3118-0.30907 5.4618-1.4407 7-2.5147 4.9203-3.4354 11.936-5.5509 16.648-5.0199l4.3742 0.49304 0.60698-7.8711c0.33384-4.3291 1.0756-8.4294 1.6484-9.1117 0.5728-0.68229 2.024-2.5477 3.225-4.1454 3.1184-4.1487 15.96-9.9252 20.679-9.3023 5.1306 0.67727 11.253 3.1735 12.726 5.1893 0.691 0.94499 1.7415 1.4183 2.3345 1.0518 1.578-0.97529 8.0293-11.308 10.152-16.261 4.0618-9.4758 11.735-19.669 19.778-26.273 5.6723-4.6577 8.5757-7.8779 10.244-11.361 3.9506-8.2509 18.017-18.723 26.716-19.89 5.9066-0.79225 5.3256 1.9256-0.8346 3.904-2.475 0.79484-5.4 1.8448-6.5 2.3332-1.1 0.48843-2.9 1.1363-4 1.4397-2.269 0.62581-10.07 7.903-11.664 10.88-0.94408 1.764-0.78226 1.917 1.555 1.4703 4.5539-0.87053 2.8172 1.5554-4.0976 5.724-3.6494 2.2-8.2758 5.575-10.281 7.5-6.2987 6.047-14.2 17.193-18.077 25.5-2.0535 4.4-5.2288 10.025-7.0562 12.5-4.5374 6.1454-9.8423 16.944-9.8628 20.076-0.009 1.4377-1.1214 3.6134-2.5168 4.9243-1.375 1.2918-2.5 2.8207-2.5 3.3977 0 0.57698-2.7 3.6183-6 6.7585-4.3996 4.1865-6 6.4192-6 8.3703 0 1.7938-0.63312 2.8264-1.9429 3.1689-1.1838 0.30958-2.2056 1.7381-2.6155 3.6564-0.36993 1.7316-1.0239 3.5983-1.4533 4.1483-0.89363 1.1447 4.1286 17.223 6.5197 20.872 2.4068 3.6733 6.6144 4.9723 14.147 4.3677 3.6256-0.29103 7.9713-0.13357 9.6571 0.34991 2.2756 0.65262 3.4875 0.49673 4.7052-0.60524 0.90207-0.81636 2.5388-1.4843 3.6371-1.4843s3.0879-1.1678 4.4213-2.595c1.3334-1.4273 3.6181-3.2162 5.0771-3.9754 2.1437-1.1155 2.7854-2.3444 3.3437-6.4039 0.76495-5.5618 1.8718-6.977 3.3671-4.3051 0.55147 0.98542 1.3502 1.3753 1.8115 0.88412 0.45375-0.48321 0.2625-1.0795-0.425-1.325-1.8352-0.65543-1.6113-6.2798 0.25-6.2798 1.4212 0 2.051-3.3474 1.5523-8.25-0.0979-0.9625 0.24813-1.75 0.76898-1.75 1.4357 0 6.3034-13.951 6.3625-18.235 0.0358-2.5978 0.50132-3.7649 1.5015-3.7649 1.006 0 1.2505-0.62696 0.79919-2.049-0.38104-1.2006 0.005-3.0493 0.93261-4.4648 0.87061-1.3287 1.5829-3.5016 1.5829-4.8286s0.60085-2.9114 1.3352-3.5209c0.73437-0.60947 1.9314-2.9146 2.6601-5.1224 0.72866-2.2079 1.7028-4.0143 2.1648-4.0143 0.46197 0 0.83994-0.59656 0.83994-1.3257 0-0.72912 1.125-2.3826 2.5-3.6743 1.375-1.2918 2.5-2.8866 2.5-3.5441 0-0.65749 1.6152-3.0381 3.5893-5.2902 3.5365-4.0345 3.6268-4.0702 6.133-2.4281 2.4706 1.6188 2.6093 1.5843 4.8314-1.2024 2.1411-2.6852 2.437-2.7741 4.617-1.3875 2.3633 1.5032 16.473 1.8088 18.743 0.40589 0.5767-0.3564 5.4446-0.59696 10.818-0.53458 5.373 0.0624 10.669 0.10747 11.769 0.10021 3.3152-0.0219 9.8172-1.1011 12.899-2.141 1.5946-0.53801 4.5196-1.0137 6.5-1.0572 1.9805-0.0434 3.0383-0.30592 2.3508-0.58333-2.7673-1.1166-0.929-2.1786 4.9527-2.8612 3.4115-0.39594 7.799-1.5349 9.75-2.5311 1.951-0.99615 6.5848-3.1862 10.297-4.8668 7.2666-3.2895 8.259-4.6617 4.1222-5.7-2.2667-0.56891-14.286 2.4512-17.872 4.491-0.55 0.3128-2.0374 0.43464-3.3053 0.27077-1.2678-0.16387-3.3948 0.41595-4.7264 1.2885-1.9583 1.2831-4.0464 1.4615-10.92 0.93316-7.3486-0.56486-8.5845-0.43054-9.1305 0.99236-0.9471 2.4682-3.7055 2.1283-2.9159-0.35929 0.4519-1.4238 0.1091-2.1632-1.1826-2.5511-1.0005-0.3004-3.093-1.1982-4.65-1.9951-1.5571-0.79689-4.7446-1.4489-7.0834-1.4489-2.3387 0-4.5607-0.3084-4.9376-0.68534-1.2987-1.2986-8.161-3.497-13.648-4.3722-5.8185-0.92804-14.33 0.15815-21.375 2.7279-3.8666 1.4103-5.8259 1.1124-4.0585-0.61702 2.2576-2.2092 10.686-4.2407 19.76-4.7628l9.827-0.56538-4.478-4.6126c-7.016-7.2267-10.742-14.176-12.247-22.842-1.1809-6.8004-1.1282-8.4036 0.5002-15.222 2.1891-9.165 5.4689-15.785 11.255-22.719 5.6753-6.8006 8.0414-8.5314 15.815-11.569 13.418-5.2437 25.665-4.5178 40.183 2.3817 6.3001 2.994 9.8593 5.3867 11.962 8.0416 3.8075 4.8074 7.8548 12.39 7.8548 14.716 0 0.98639 0.646 3.1001 1.4355 4.6971 2.4318 4.9191 1.7803 17.377-1.4516 27.757-0.8661 2.7816-0.8076 2.8417 2.3138 2.3722 1.7613-0.26489 5.8835-1.0268 9.1606-1.693 8.1803-1.6632 15.632-0.62998 18.654 2.5862 1.2947 1.378 3.7916 3.3941 5.5488 4.4801 2.4088 1.4887 3.1292 2.5902 2.9281 4.4765-0.321 3.0111-1.0407 3.7091-5.5889 5.4206-9.1246 3.4336-21.836 10.269-22.285 11.984-0.5507 2.1058-6.8773 6.3694-10.94 7.3722-1.4982 0.36989-4.364 1.7854-6.3685 3.1457-5.4796 3.7186-16.639 6.5211-34.407 8.6406-9.5271 1.1365-10.097 1.148-15.002 0.30327-2.1351-0.36768-5.258 0.0172-8 0.98597-2.4739 0.874-10.573 2.0945-17.998 2.7123l-13.5 1.1232-3.8321 3.6182c-4.4985 4.2474-8.3848 10.495-9.842 15.822-0.57123 2.0881-2.5201 6.9714-4.3308 10.852-3.3761 7.2351-3.73 12.445-0.84527 12.445 0.77917 0 3.6282 1.1207 6.3312 2.4904 4.7435 2.4037 7.4479 4.7838 16.963 14.929 2.444 2.6059 6.1155 5.5909 8.159 6.6334 3.4003 1.7347 8.1007 5.3248 16.598 12.678 1.7606 1.5234 3.9614 4.3449 4.8906 6.2699 2.7655 5.7291 5.4311 9 7.3344 9 2.1666 0 7.08 8.9363 7.061 12.842-0.0168 3.4508-3.6319 14.964-5.6811 18.093-0.8773 1.3395-4.2657 5.1645-7.5299 8.5-7.3347 7.4951-8.9894 10.553-8.6548 15.994 0.2263 3.6795-0.1712 4.6511-2.9306 7.1638-2.4931 2.2703-3.0504 3.4252-2.5446 5.2728 0.5971 2.1809 1.0074 2.3158 5.2508 1.7263 2.5317-0.35174 9.1031-0.87707 14.603-1.1674zm-100.35-184.31c-2.1385-1.355 0.47131-2.3863 2.8361-1.1208 1.1114 0.59478 2.0207 1.2906 2.0207 1.5462 0 0.78478-3.4195 0.4852-4.8568-0.42549zm-47.701-25.528c-1.0668-0.78003-1.6047-1.7531-1.1954-2.1624 0.94419-0.94419 5.7526 1.195 5.7526 2.5592 0 1.4601-2.2906 1.2607-4.5573-0.3968zm-26.693-16.34c-3.3201-2.0585-3.6148-3.6416-0.5-2.6868 2.703 0.82866 4.75 2.366 4.75 3.5674 0 1.2802-1.1486 1.0422-4.25-0.88067zm-20.35-13.413c-1.7996-2.0496-1.8037-2.1325-0.0732-1.5 1.0075 0.36827 2.47 0.66957 3.25 0.66957 0.78001 0 1.4182 0.675 1.4182 1.5 0 2.1842-2.3958 1.8351-4.595-0.66957zm-38.16-19.833c-3.9464-3.1956-2.4164-4.2381 1.641-1.1182 1.3123 1.0091 1.9851 2.0825 1.495 2.3854-0.49006 0.30288-1.9013-0.26736-3.136-1.2672zm-14.67-9.0567c-2.4926-2.5128-0.81079-2.4716 2.425 0.05943 1.6209 1.2679 1.9725 1.9424 1 1.9183-0.825-0.02046-2.3662-0.91045-3.425-1.9778zm-5.575-3.9406c0-0.55 0.45-1 1-1s1 0.45 1 1-0.45 1-1 1-1-0.45-1-1zm-14.5-8c-0.33992-0.55 0.0835-1 0.94098-1 0.85746 0 1.559 0.45 1.559 1s-0.42344 1-0.94098 1-1.2191-0.45-1.559-1zm-10.724-4.4138c-1.4981-1.8776-4.3106-3.9375-6.25-4.5775-3.1617-1.0434-4.8915-3.0086-2.6482-3.0086 3.7157 0 14.122 7.4255 14.122 10.077 0 2.0062-2.6401 0.7474-5.2239-2.4908zm150.22-23.182-2.5-1.5251 3.4688 0.5793c3.9462 0.65904 6.5906 2.5629 3.4812 2.5064-1.0725-0.01948-3.075-0.72173-4.45-1.5605zm-9.75-2.0663c-0.6875-0.27741-1.25-0.91689-1.25-1.421 0-1.3866 2.3766-1.0991 4.5589 0.55153 1.915 1.4484 1.9142 1.4676-0.0589 1.421-1.1-0.02593-2.5625-0.27412-3.25-0.55153zm-10.75-4.3377c-0.33992-0.55-0.14148-1 0.44098-1s1.059 0.45 1.059 1-0.19844 1-0.44098 1-0.7191-0.45-1.059-1zm-18.041-4.0665c-0.36253-0.58659-0.41903-1.3066-0.12555-1.6001 0.71632-0.71631 2.6667 0.54583 2.6667 1.7257 0 1.278-1.7264 1.1927-2.5411-0.12555zm-10.44-2.8945c-2.6068-1.6486-0.425-2.1262 2.5723-0.56311 2.3166 1.2081 2.4971 1.5099 0.89878 1.5026-1.1-0.005-2.662-0.4278-3.471-0.93947zm-8.779-1.7013c-1.3827-0.55792-1.7185-2.3377-0.44113-2.3377 0.44488 0 1.6824 0.66069 2.75 1.4682 1.4465 1.0941 1.5589 1.4562 0.44113 1.421-0.825-0.02593-2.0625-0.27412-2.75-0.55153zm-11.556-2.9772c-0.35171-0.35171-0.4123-1.0071-0.13464-1.4563 0.62351-1.0088 3.4408-0.02401 3.4408 1.2028 0 1.0261-2.3531 1.2065-3.3062 0.25353zm-7.1938-2.3605c-0.33992-0.55 0.11008-1 1-1s1.3399 0.45 1 1c-0.33992 0.55-0.78992 1-1 1s-0.66008-0.45-1-1zm-7.5-2c-1.2421-0.80271-1.1561-0.96937 0.5-0.96937 1.1 0 2.675 0.43621 3.5 0.96937 1.2421 0.80271 1.1561 0.96937-0.5 0.96937-1.1 0-2.675-0.43621-3.5-0.96937zm-14.53-3.0503c-0.95021-1.5375 0.35135-2.5295 1.6348-1.246 0.71818 0.71818 0.73543 1.2775 0.0524 1.6996-0.55992 0.34605-1.3192 0.1419-1.6873-0.45366zm-13.469-4.9498c0-0.55 0.45-1 1-1s1 0.45 1 1-0.45 1-1 1-1-0.45-1-1zm-37.08-5.596c-1.1565-1.3935-1.0233-1.5521 1.0492-1.25 1.3056 0.19032 2.5591 0.90854 2.7855 1.596 0.59252 1.7992-2.2686 1.541-3.8347-0.34604zm-7.8913-1.3649c-0.80907-0.51167-1.166-1.2354-0.79313-1.6082 0.9151-0.91509 3.7642 0.24885 3.7642 1.5378 0 1.2701-1.0353 1.2946-2.971 0.07044zm-6.029-40.539c0-0.83333 0.88889-1.5 2-1.5 2.3842 0 2.6526 1.5356 0.41821 2.393-2.2351 0.85768-2.4182 0.79004-2.4182-0.89301zm12.543-0.4309c-0.31644-0.512-0.11799-1.2136 0.44098-1.559 1.1934-0.73754 3.0163 0.19857 3.0163 1.5489 0 1.2168-2.7066 1.2247-3.4573 0.01008zm275.46-0.12812c0-0.58246 0.45-0.7809 1-0.44098s1 0.81648 1 1.059c0 0.24254-0.45 0.44098-1 0.44098s-1-0.47656-1-1.059zm-256-1c0-0.58246 0.45-0.7809 1-0.44098s1 0.81648 1 1.059c0 0.24254-0.45 0.44098-1 0.44098s-1-0.47656-1-1.059zm15-0.94098c1.9709-1.2737 6-1.2737 6 0 0 0.55-1.6875 0.99311-3.75 0.98469-2.7894-0.01139-3.3658-0.26363-2.25-0.98469zm25.5 0c0.33992-0.55 1.2665-1 2.059-1 0.79254 0 1.441 0.45 1.441 1s-0.92656 1-2.059 1c-1.1325 0-1.7809-0.45-1.441-1zm16.194 0.36052c-1.0177-1.0177 0.25806-2.3605 2.2427-2.3605 1.0002 0 2.3787 0.675 3.0634 1.5 1.0588 1.2758 0.80309 1.5-1.7109 1.5-1.6257 0-3.2435-0.28777-3.5953-0.63948zm17.806-1.3157c-4.9492-0.51054-5.5455-0.75597-3.4047-1.4015 3.5988-1.0851 10.165-0.40356 10.661 1.1066 0.22585 0.6875 0.0356 1.1744-0.4227 1.0819-0.45833-0.09246-3.5333-0.44662-6.8333-0.78704zm34.3-3.2448c0.93333-0.93333 1.4667-0.93333 2.4 0 0.93333 0.93333 0.66667 1.2-1.2 1.2s-2.1333-0.26667-1.2-1.2zm48.2-0.8c0-0.55 0.45-1 1-1s1 0.45 1 1-0.45 1-1 1-1-0.45-1-1zm40-1c0-0.55 0.47656-1 1.059-1 0.58246 0 0.7809 0.45 0.44098 1s-0.81648 1-1.059 1c-0.24254 0-0.44098-0.45-0.44098-1zm12 389.94c0-0.51754-0.45-0.94098-1-0.94098s-1 0.70156-1 1.559c0 0.85746 0.45 1.2809 1 0.94098s1-1.0415 1-1.559zm-576-3.1076c0-4.9348-0.49432-4.7759-1.2956 0.41667-0.32055 2.0773-0.16065 3.75 0.35846 3.75 0.51542 0 0.93713-1.875 0.93713-4.1667zm12.588 0.42173c-1.0924-1.0924-1.8415 0.64486-1.0572 2.4518 0.74368 1.7134 0.79759 1.7118 1.2119-0.0351 0.2385-1.0056 0.16886-2.093-0.15476-2.4167zm14.412 2.7449c0-0.55-0.45-1-1-1s-1 0.45-1 1 0.45 1 1 1 1-0.45 1-1zm19.985-1.75c-0.008-0.9625-0.45153-2.425-0.98469-3.25-0.7356-1.1383-0.97307-0.71622-0.98469 1.75-0.008 1.7875 0.43469 3.25 0.98469 3.25s0.99311-0.7875 0.98469-1.75zm275.99-0.21094c0.80907-0.51167 1.166-1.2354 0.79313-1.6082-0.9151-0.91509-3.7642 0.24885-3.7642 1.5378 0 1.2701 1.0353 1.2946 2.971 0.0704zm-142.97-3.0981c0-0.51754-0.45-0.94098-1-0.94098s-1 0.70156-1 1.559c0 0.85746 0.45 1.2809 1 0.94098s1-1.0415 1-1.559zm56 0.55902c0-0.825-0.45-1.5-1-1.5s-1 0.675-1 1.5 0.45 1.5 1 1.5 1-0.675 1-1.5zm-171.34-2.75c-0.27741-0.6875-0.50439-0.125-0.50439 1.25s0.22698 1.9375 0.50439 1.25 0.27741-1.8125 0-2.5zm-291.98 0.0625c-0.31922-0.79773-0.55618-0.56078-0.60416 0.60417-0.04342 1.0542 0.19292 1.6448 0.52522 1.3125 0.33229-0.33229 0.36781-1.1948 0.07894-1.9167zm298.77-0.7434c0.31644-0.512 0.11799-1.2136-0.44098-1.559-0.55897-0.34546-1.0163 0.0734-1.0163 0.9309 0 1.7565 0.60006 2.0152 1.4573 0.62812zm47.543-5.6281c0-4.4185-0.35042-6.3424-1.0738-5.8954-0.65689 0.40598-0.88819 2.8555-0.59575 6.309 0.54016 6.3788 0.49575 6.1454 1.1695 6.1454 0.275 0 0.5-2.9516 0.5-6.559zm-169.4 2.8298c-1.0165-1.0165-1.8552 0.51389-1.0212 1.8634 0.63003 1.0194 0.86558 1.0202 1.2043 0.004 0.2316-0.69479 0.14921-1.5351-0.18308-1.8674zm209.4 0.72917c0-0.55-0.45-1-1-1s-1 0.45-1 1 0.45 1 1 1 1-0.45 1-1zm-357-2.559c0-0.79254-0.45-1.441-1-1.441s-1 0.92656-1 2.059c0 1.1325 0.45 1.7809 1 1.441 0.55-0.33992 1-1.2665 1-2.059zm339.23-2.691c0.23013-2.8875 0.0486-5.6775-0.40349-6.2-0.46434-0.53671-0.82669 0.11584-0.83291 1.5-0.006 1.3475-0.28993 4.1375-0.63084 6.2-0.38278 2.3158-0.22426 3.75 0.41449 3.75 0.56889 0 1.2226-2.3625 1.4528-5.25zm-264.54 2.0625c-0.31922-0.79773-0.55618-0.56078-0.60416 0.60417-0.04342 1.0542 0.19293 1.6448 0.52522 1.3125 0.33229-0.33229 0.36781-1.1948 0.07894-1.9167zm214 0c-0.31922-0.79773-0.55618-0.56078-0.60416 0.60417-0.0434 1.0542 0.19293 1.6448 0.52522 1.3125 0.33229-0.33229 0.36781-1.1948 0.0789-1.9167zm-303.68-2.8125c0-2.2-0.45-4-1-4s-1 1.8-1 4 0.45 4 1 4 1-1.8 1-4zm197.68 1.8125c-0.31922-0.79773-0.55618-0.56078-0.60416 0.60417-0.0434 1.0542 0.19293 1.6448 0.52522 1.3125 0.33229-0.33229 0.36781-1.1948 0.0789-1.9167zm321.98-1.0625c-0.27741-0.6875-0.50439-0.125-0.50439 1.25s0.22698 1.9375 0.50439 1.25 0.27741-1.8125 0-2.5zm224.7 0.75c-0.31659-0.825-0.75246-1.5-0.96862-1.5-0.21615 0-0.39301 0.675-0.39301 1.5s0.43588 1.5 0.96862 1.5c0.53273 0 0.70959-0.675 0.39301-1.5zm-299.94-2.9552c-0.43438-1.7307-1.0202-2.3465-1.6413-1.7254-0.62115 0.62115-0.54698 1.7486 0.2078 3.1589 1.5101 2.8217 2.3026 2.0292 1.4335-1.4335zm-149.74-0.72c-0.31922-0.79773-0.55618-0.56078-0.60416 0.60417-0.0434 1.0542 0.19293 1.6448 0.52522 1.3125 0.33229-0.33229 0.36781-1.1948 0.0789-1.9167zm426.32 0.10417c0-2.437-2.3368-2.0926-2.8233 0.4162-0.19138 0.98676 0.31876 1.6671 1.25 1.6671 0.92763 0 1.5733-0.855 1.5733-2.0833zm51.5 1.0833c0.33992-0.55 0.14148-1-0.44098-1s-1.059 0.45-1.059 1 0.19844 1 0.44098 1 0.7191-0.45 1.059-1zm-353.5-1c0-0.55-0.19844-1-0.44098-1s-0.7191 0.45-1.059 1c-0.33992 0.55-0.14148 1 0.44098 1s1.059-0.45 1.059-1zm55.706-5.25c-0.23835-1.2375-0.43337-0.225-0.43337 2.25s0.19502 3.4875 0.43337 2.25c0.23836-1.2375 0.23836-3.2625 0-4.5zm108.29 1.25c0-2.75-0.36958-5-0.82129-5s-0.92395 2.25-1.0494 5c-0.13546 2.9686 0.19821 5 0.82129 5 0.59265 0 1.0494-2.1763 1.0494-5zm-341.52-2.6422c0.4384-3.3112 0.29662-5.3796-0.39817-5.809-0.692-0.42768-1.079 0.56483-1.079 2.7672 0 1.8887-0.28451 4.9528-0.63224 6.809-0.43219 2.3071-0.3062 3.0586 0.39818 2.375 0.56673-0.55 1.3368-3.314 1.7112-6.1422zm196.88 5.1422c0.31658-0.825 0.19482-1.5-0.27057-1.5s-1.4064 0.675-2.0911 1.5c-1.0134 1.2211-0.96312 1.5 0.27057 1.5 0.8335 0 1.7745-0.675 2.0911-1.5zm81.623-0.75c-0.012-1.7567-0.21673-1.9316-0.93402-0.79775-0.50529 0.79874-0.69684 1.8112-0.42567 2.25 0.86737 1.4034 1.3754 0.86078 1.3597-1.4522zm26.708-1.481c-0.25354-0.97297-0.47766-0.41903-0.49804 1.231-0.0204 1.65 0.18706 2.4461 0.46099 1.769 0.27392-0.67703 0.29059-2.027 0.0371-3zm133.21-1.519-0.10045-5.25-0.92699 3.9573c-0.50985 2.1765-0.70377 4.539-0.43094 5.25 1.0097 2.6313 1.5561 1.1488 1.4584-3.9573zm-559.48 2.6069c0.34679-0.90372 0.42487-1.8488 0.17352-2.1001-0.79473-0.79474-2.5901 0.80111-2.5901 2.3023 0 1.9615 1.6389 1.8244 2.4166-0.20215zm-163.88-4.2562c-0.3667-1.1554-1.0864-2.1007-1.5993-2.1007-1.0762 0-1.2164 2.0968-0.29983 4.4854 0.93015 2.4239 2.7143 0.18356 1.8992-2.3848zm87.327-1.1007c0-0.94548-0.31771-0.76064-0.85943 0.5-0.47269 1.1-0.85943 2.675-0.85943 3.5 0 0.94548 0.31771 0.76064 0.85943-0.5 0.47269-1.1 0.85943-2.675 0.85943-3.5zm261.35-4.38c-0.85741-1.3172-2.0231 6.2217-1.2974 8.3909 0.27599 0.825 0.84324-0.47592 1.2606-2.8909 0.41732-2.415 0.43391-4.89 0.0368-5.5zm56.66 3.5819c-0.1062-4.2105-0.19651-4.3837-0.88169-1.691-1.1388 4.4754-1.1388 7.7038 0 7 0.55-0.33992 0.94676-2.729 0.88169-5.309zm36.565-9.691 0.49176-9-1.3652 8c-1.6738 9.8088-1.9582 12.43-1.6268 15 0.48184 3.7368 1.9937-4.7285 2.5003-14zm-306.45 12.5c0-1.1-0.17252-2-0.38337-2s-0.61872 0.9-0.90638 2-0.11514 2 0.38337 2 0.90638-0.9 0.90638-2zm120-3.67c0-3.1167-0.2506-5.4161-0.55688-5.1098-0.77198 0.77197-1.4564 8.946-0.83342 9.954 1.0729 1.736 1.3903 0.6302 1.3903-4.8442zm219.02 0.30133c-0.86005-0.85125-1.0266-0.38534-0.66689 1.8653 0.66081 4.1344 0.84826 4.3589 1.3648 1.6347 0.24666-1.3009-0.0674-2.8759-0.69791-3.5zm-279.8-1.8847c0.23013-2.8875 0.0486-5.6775-0.40349-6.2-0.46434-0.53671-0.82669 0.11584-0.83291 1.5-0.006 1.3475-0.28993 4.1375-0.63084 6.2-0.38278 2.3158-0.22426 3.75 0.41449 3.75 0.56889 0 1.2226-2.3625 1.4528-5.25zm397.06 3.251c0.28751-1.0995 0.115-2.251-0.38337-2.559-0.49837-0.30801-0.90612 0.59154-0.90612 1.999 0 3.064 0.56994 3.3116 1.2895 0.56002zm-180.61-2.1885c-0.31922-0.79773-0.55618-0.56078-0.60416 0.60417-0.0434 1.0542 0.19293 1.6448 0.52522 1.3125 0.33229-0.33229 0.36781-1.1948 0.0789-1.9167zm370.54-2.5625c0.43585-4.877 0.23823-6.0447-0.84039-4.9661-1.1453 1.1453-1.6865 9.7161-0.61348 9.7161 0.56615 0 1.2204-2.1375 1.4539-4.75zm-519.22 2.25c0-0.825-0.17686-1.5-0.39301-1.5-0.21616 0-0.65203 0.675-0.96862 1.5-0.31658 0.825-0.13972 1.5 0.39301 1.5 0.53274 0 0.96862-0.675 0.96862-1.5zm157-1c0-1.375-0.44496-2.5-0.9888-2.5s-0.89569 1.125-0.78189 2.5 0.55876 2.5 0.9888 2.5 0.78189-1.125 0.78189-2.5zm319.94-6.809c0.0317-0.99496-0.39237-1.5309-0.94237-1.191-0.55 0.33992-0.94825 2.954-0.885 5.809l0.115 5.191 0.82737-4c0.45505-2.2 0.8533-4.8141 0.885-5.809zm-711.94 5.809c0-1.375-0.3876-2.5-0.86133-2.5s-0.64627 1.125-0.38342 2.5 0.65044 2.5 0.86133 2.5c0.21088 0 0.38342-1.125 0.38342-2.5zm129.51-8.5c-0.15987-1.925-0.34001-4.0625-0.4003-4.75-0.0603-0.6875-0.78463-1.25-1.6096-1.25-1.5744 0-1.9816 1.185-0.81 2.3567 0.3795 0.3795 0.57158 2.9213 0.42683 5.6484s0.07836 5.9791 0.4958 7.2267c0.66368 1.9834 0.84868 1.766 1.4735-1.7318 0.39298-2.2 0.5837-5.575 0.42383-7.5zm653.47 7.75c0.008-0.4125-0.43469-0.75-0.98469-0.75s-0.99311 1.0125-0.98469 2.25c0.0124 1.8194 0.20082 1.963 0.98469 0.75 0.53316-0.825 0.97627-1.8375 0.98469-2.25zm-804.3-0.9375c-0.31922-0.79773-0.55618-0.56078-0.60416 0.60417-0.04342 1.0542 0.19292 1.6448 0.52522 1.3125 0.33229-0.33229 0.36781-1.1948 0.07894-1.9167zm222.32 0.74652c0-0.24254-0.45-0.7191-1-1.059-0.55-0.33992-1-0.14148-1 0.44098s0.45 1.059 1 1.059 1-0.19844 1-0.44098zm4.9696-2.809c-0.0242-2.5852-0.22908-2.9096-1.0016-1.5859-0.53416 0.91523-0.69733 2.3777-0.36261 3.25 0.94078 2.4516 1.3975 1.8945 1.3642-1.6641zm415.03 2.25c0-0.55-0.45-1-1-1s-1 0.45-1 1 0.45 1 1 1 1-0.45 1-1zm-605.39-5.8137c-0.22377-2.5775-0.46587-5.3613-0.538-6.1863-0.11657-1.3333-0.22535-1.3333-0.97905 0-0.46635 0.825-0.7481 2.85-0.62611 4.5 0.12198 1.65 0.29223 4.0391 0.37832 5.309 0.08608 1.27 0.60994 2.0288 1.1641 1.6863 0.55417-0.3425 0.8245-2.7316 0.60073-5.309zm242.86 1.0637c0.73477-4.8226 0.6923-23.404-0.0552-24.167-0.92138-0.94007-1.168 1.0509-1.8171 14.667-0.40206 8.4344-0.30629 14.25 0.23466 14.25 0.50268 0 1.2396-2.1375 1.6377-4.75zm63.536 3.25c0-0.825-0.45-1.5-1-1.5s-1 0.675-1 1.5 0.45 1.5 1 1.5 1-0.675 1-1.5zm-276-2c0-1.375-0.45-2.5-1-2.5s-1 1.125-1 2.5 0.45 2.5 1 2.5 1-1.125 1-2.5zm89.697-1.23c-0.25354-0.97297-0.47766-0.41903-0.49804 1.231s0.18706 2.4461 0.46099 1.769c0.27392-0.67703 0.29059-2.027 0.03705-3zm199.98-2.9434c0.0875-4.5294-0.0602-5.1581-0.66377-2.8257-1.052 4.0648-1.1952 9.7306-0.23092 9.1347 0.43015-0.26585 0.83276-3.1049 0.89469-6.309zm56.34 1.1743c0.0971-2.2 0.0812-5.125-0.0354-6.5-0.27749-3.274-1.8416 4.0008-1.9243 8.95-0.081 4.8479 1.7379 2.5738 1.9596-2.45zm13.864 0.75c-0.11633-3.687-0.13014-3.6996-0.82161-0.75-0.66606 2.8412-0.48214 4.5 0.49894 4.5 0.24254 0 0.38774-1.6875 0.32267-3.75zm39.036-10.25c-0.52443-0.91758-0.81598 1.6062-0.75089 6.5l0.10642 8 0.75088-6.5c0.41299-3.575 0.3651-7.175-0.10641-8zm34.446 9.3604c0.34975-2.5518 0.62224-6.2643 0.60551-8.25-0.0478-5.6819-1.6056-1.6393-2.3657 6.1396-0.74031 7.5759 0.76386 9.3794 1.7602 2.1104zm38.329 0.9086c-0.25354-0.97297-0.47766-0.41903-0.49804 1.231-0.0204 1.65 0.18706 2.4461 0.46099 1.769 0.27392-0.67703 0.29059-2.027 0.0371-3zm26.656-3.8712c0.35344-4.1812 0.39291-8.0062 0.0877-8.5-1.4158-2.2908-1.9369-0.24569-1.9369 7.6022 0 4.675 0.27147 8.5 0.60326 8.5 0.3318 0 0.89245-3.421 1.2459-7.6022zm-425.02 0.89093c0.33262-1.7662 0.22694-3.4447-0.23485-3.7301-0.77533-0.47918-2.0985 4.9601-2.0535 8.4414 0.03046 2.3542 1.5449-0.76366 2.2883-4.7112zm121.89 1.9612c0.26637-2.0625 0.51247-6.9 0.54687-10.75l0.0626-7-1.3278 8.5c-0.73027 4.675-1.3671 9.5125-1.4152 10.75-0.14586 3.7529 1.615 2.5149 2.1335-1.5zm288.78-1.868c0-2.7454-0.38992-4.259-1-3.882-0.55 0.33992-1 2.643-1 5.118 0 2.7454 0.38992 4.259 1 3.882 0.55-0.33992 1-2.643 1-5.118zm91.21 2.6413c0.24029-1.6372 0.0733-3.5497-0.37118-4.25-0.48471-0.76373-0.81421 0.42749-0.8234 2.9767-0.0178 4.9358 0.56575 5.5578 1.1946 1.2733zm-623.16-5.5288c-0.81913-6.8034-2.5019-5.9383-2.8714 1.4761-0.31233 6.2675-0.26371 6.4174 1.549 4.777 1.4964-1.3542 1.7614-2.6073 1.3225-6.2531zm83.951 5.9465c0-0.85746-0.45734-1.2764-1.0163-0.9309-0.55897 0.34546-0.75742 1.047-0.44098 1.559 0.85723 1.387 1.4573 1.1284 1.4573-0.62812zm337.69-2.17c-0.25354-0.97297-0.47766-0.41903-0.49804 1.231-0.0204 1.65 0.18706 2.4461 0.46099 1.769 0.27392-0.67703 0.29059-2.027 0.0371-3zm-385.71-3.019c-0.01087-4.0814-0.29662-5.3147-0.98469-4.25-1.0977 1.6986-1.301 6.0521-0.39301 8.4182 1.0581 2.7574 1.3934 1.7428 1.3777-4.1682zm645.27-5.089c0.13478-5.0393-0.0924-9.1621-0.50494-9.1617-0.4125 0.00038-0.75 4.3507-0.75 9.6674 0 12.146 0.92653 11.773 1.2549-0.50563zm-671.25 2.839c0-6.869-1.5783-8.116-2.215-1.75-0.48031 4.8021 0.0262 7.75 1.3316 7.75 0.48585 0 0.88337-2.7 0.88337-6zm486.87-2.5c0.0783-2.2813-0.12924-2.6406-0.86637-1.5-0.53316 0.825-0.92302 3.525-0.86637 6 0.0939 4.104 0.17018 4.236 0.86637 1.5 0.41985-1.65 0.80972-4.35 0.86637-6zm-513.01 1c-0.03613-3.025-0.46916-5.5-0.96227-5.5-1.0086 0-1.2234 6.9847-0.28959 9.4182 1.0324 2.6904 1.32 1.7901 1.2519-3.9182zm375.87 4.8958c-0.33229-0.33229-1.1948-0.36781-1.9167-0.0789-0.79773 0.31922-0.56078 0.55618 0.60417 0.60416 1.0542 0.0434 1.6448-0.19293 1.3125-0.52522zm71.703-17.896c0.3715-11.155 0.24843-17.43-0.32363-16.5-1.8362 2.9838-2.386 36.611-0.56879 34.793 0.16112-0.16122 0.56271-8.3931 0.89242-18.293zm358.25 16.312c-0.31922-0.79773-0.55618-0.56078-0.60416 0.60417-0.0434 1.0542 0.19293 1.6448 0.52522 1.3125 0.33229-0.33229 0.36781-1.1948 0.0789-1.9167zm-705.8-4.5625-0.12009-5.75-1.0095 4.191c-0.92595 3.844-0.5854 7.309 0.71834 7.309 0.29226 0 0.47734-2.5875 0.41129-5.75zm55.12 3.691c0-0.51754-0.45-0.94098-1-0.94098s-1 0.70156-1 1.559c0 0.85746 0.45 1.2809 1 0.94098s1-1.0415 1-1.559zm315 1.059c0-0.55-0.19844-1-0.44098-1s-0.7191 0.45-1.059 1c-0.33992 0.55-0.14148 1 0.44098 1s1.059-0.45 1.059-1zm-258.22-4.7835c-0.58293-2.7634-2.2903-1.5677-2.5465 1.7835-0.25459 3.3295-0.19228 3.4035 1.2789 1.5193 0.8506-1.0894 1.421-2.5756 1.2676-3.3028zm-134.12 0.53c-0.27741-0.6875-0.50439-0.125-0.50439 1.25s0.22698 1.9375 0.50439 1.25 0.27741-1.8125 0-2.5zm464.33-0.92c0-4.9348-0.49432-4.7759-1.2956 0.41667-0.32055 2.0773-0.16065 3.75 0.35846 3.75 0.51542 0 0.93713-1.875 0.93713-4.1667zm-323 0.7301c0-0.7252-0.675-1.8787-1.5-2.5634-1.2641-1.0491-1.5-0.85864-1.5 1.2109 0 1.3507 0.28777 2.7435 0.63948 3.0953 0.90297 0.90297 2.3605-0.17311 2.3605-1.7427zm211 1.9956c0-0.24254-0.45-0.7191-1-1.059-0.55-0.33992-1-0.14148-1 0.44098s0.45 1.059 1 1.059 1-0.19844 1-0.44098zm144.66-2.809c-0.27741-0.6875-0.50439-0.125-0.50439 1.25s0.22698 1.9375 0.50439 1.25 0.27741-1.8125 0-2.5zm236.73-1c0.383-1.625 0.23127-2.75-0.37089-2.75-0.56048 0-1.0252 0.5625-1.0327 1.25-0.008 0.6875-0.29373 2.375-0.63605 3.75-0.4172 1.6758-0.29043 2.1703 0.38455 1.5 0.55381-0.55 1.2986-2.2375 1.6551-3.75zm-186.39 1.75c0-0.825-0.17686-1.5-0.39301-1.5-0.21616 0-0.65203 0.675-0.96862 1.5-0.31658 0.825-0.13972 1.5 0.39301 1.5 0.53274 0 0.96862-0.675 0.96862-1.5zm-488.32-1.6875c-0.31922-0.79773-0.55618-0.56078-0.60416 0.60417-0.04342 1.0542 0.19293 1.6448 0.52522 1.3125 0.33229-0.33229 0.36781-1.1948 0.07894-1.9167zm-115.8-7.1629c0.16049-3.606-0.11798-4.7391-1.0854-4.4167-0.71571 0.23857-1.2563 0.95876-1.2013 1.6004 0.055 0.64167 0.19602 3.5292 0.31339 6.4167 0.25837 6.3568 1.6425 3.8313 1.9733-3.6004zm176.38-4.6206c-0.80827-1.0275-2.257 2.5943-1.7884 4.471 0.27464 1.1 0.57411 3.575 0.66549 5.5 0.0969 2.0405 0.44289 0.78949 0.82981-3 0.36502-3.575 0.49693-6.712 0.29314-6.971zm68.943 0.72104c0.39518-11.661 0.30259-13.619-0.59903-12.667-0.96558 1.0197-1.7411 24.917-0.80858 24.917 0.58003 0 1.165-5.0908 1.4076-12.25zm35.796 8.05c0-2.8346-0.32917-3.8708-1.0125-3.1875-0.89224 0.89224-0.33174 7.3875 0.6375 7.3875 0.20625 0 0.375-1.89 0.375-4.2zm109 1.582c0-0.825-0.45-1.2219-1-0.88197-0.55 0.33992-1 1.293-1 2.118s0.45 1.2219 1 0.88197c0.55-0.33992 1-1.293 1-2.118zm299 0.41803c0-1.6154-0.29571-1.9043-1.1129-1.0871-0.61207 0.61207-0.81052 1.6021-0.44098 2.2 1.0344 1.6737 1.5538 1.3016 1.5538-1.1129zm-462.12-7.55c-0.0834-6.1673-0.34364-7.8645-0.88169-5.75-1.1483 4.5128-1.1483 14.5 0 14.5 0.59949 0 0.95261-3.5045 0.88169-8.75zm146.47 1.0991c0.78948-9.3395 0.64677-24.428-0.32013-33.849-0.61596-6.0014-0.75499-4.8603-0.97462 8-0.23487 13.752-0.55313 20.544-1.148 24.5-0.12408 0.825-0.1547 3.1875-0.0681 5.25 0.27306 6.5002 1.837 4.0705 2.5108-3.9009zm30.34 3.9199c-0.25354-0.97297-0.47766-0.41903-0.49804 1.231-0.0204 1.65 0.18706 2.4461 0.46099 1.769 0.27392-0.67703 0.29059-2.027 0.0371-3zm57.307 1.731c0-1.1-0.45-2-1-2s-1 0.9-1 2 0.45 2 1 2 1-0.9 1-2zm65.723-7.25c-0.22183-1.7875-0.40333-0.325-0.40333 3.25s0.1815 5.0375 0.40333 3.25c0.22182-1.7875 0.22182-4.7125 0-6.5zm116.01-1.5c-0.21575-2.0625-0.39226-0.375-0.39226 3.75s0.17651 5.8125 0.39226 3.75c0.21574-2.0625 0.21574-5.4375 0-7.5zm-25.066 6.5c-0.27741-0.6875-0.50439-0.125-0.50439 1.25s0.22698 1.9375 0.50439 1.25 0.27741-1.8125 0-2.5zm7.0208 1.0625c-0.31922-0.79773-0.55618-0.56078-0.60416 0.60417-0.0434 1.0542 0.19293 1.6448 0.52522 1.3125 0.33229-0.33229 0.36781-1.1948 0.0789-1.9167zm-292.18-1.3125c0-1.375-0.3375-2.5-0.75-2.5s-0.75 1.125-0.75 2.5 0.3375 2.5 0.75 2.5 0.75-1.125 0.75-2.5zm76.5-1.4182c0-2.155 0.25608-4.7425 0.56907-5.75s-0.12107-0.70679-0.96456 0.66821c-1.7236 2.8096-2.1394 9-0.60451 9 0.55 0 1-1.7632 1-3.9182zm543.93-0.33179c0.0387-0.4125-0.3797-0.75-0.9297-0.75s-0.9684 1.2375-0.9297 2.75c0.0623 2.4368 0.1681 2.5222 0.9297 0.75 0.4727-1.1 0.8911-2.3375 0.9297-2.75zm-935.56-0.97c-0.85882-1.3896-2.3114 0.19452-1.6821 1.8344 0.46515 1.2122 0.76946 1.2703 1.3903 0.26572 0.43717-0.70735 0.56845-1.6524 0.29174-2.1002zm69.635 2.7776c0-0.24254-0.45-0.7191-1-1.059-0.55-0.33992-1-0.14148-1 0.44098s0.45 1.059 1 1.059 1-0.19844 1-0.44098zm69.97-5.309c-0.0194-3.6719-0.33685-5.2079-0.87832-4.25-1.0189 1.8025-0.68388 10 0.40873 10 0.275 0 0.48632-2.5875 0.46959-5.75zm209.02 2.5c0.008-0.4125-0.43469-0.75-0.98469-0.75s-0.99311 1.0125-0.98469 2.25c0.0124 1.8194 0.20082 1.963 0.98469 0.75 0.53316-0.825 0.97627-1.8375 0.98469-2.25zm23.278-3c-0.20934-0.4125-0.80407-0.75-1.3216-0.75-1.1152 0-1.2737 5.3312-0.19098 6.4227 0.78879 0.79516 2.1687-4.3799 1.5126-5.6727zm27.737-0.30902c0-4.118-0.37216-6.329-1-5.941-1.5369 0.94986-0.96713 12.5 0.61663 12.5 0.21085 0 0.38337-2.9516 0.38337-6.559zm325.5 5.559c0.33992-0.55 0.14148-1-0.44098-1s-1.059 0.45-1.059 1 0.19844 1 0.44098 1 0.7191-0.45 1.059-1zm-479.5-8.1667c0-8.883-0.67688-9.9284-1.561-2.4108-0.5157 4.3849 0.15199 10.577 1.1405 10.577 0.23129 0 0.42054-3.675 0.42054-8.1667zm431.98 3.3576c0.009-1.2876-0.42706-2.0356-0.98469-1.691-0.55 0.33992-0.99311 2.054-0.98469 3.809 0.0117 2.4281 0.24708 2.8324 0.98469 1.691 0.53316-0.825 0.97627-2.5391 0.98469-3.809zm-499.32 0.55902c-0.27741-0.6875-0.50439-0.125-0.50439 1.25s0.22698 1.9375 0.50439 1.25 0.27741-1.8125 0-2.5zm-88.662 0.69098c0-0.85746-0.45734-1.2764-1.0163-0.9309-0.55897 0.34546-0.75742 1.047-0.44098 1.559 0.85723 1.387 1.4573 1.1284 1.4573-0.62812zm194-2.441c0-2.2-0.4199-4-0.93312-4-0.91515 0-1.2142 5.7751-0.37537 7.25 0.90667 1.5943 1.3085 0.59625 1.3085-3.25zm220.24-13.5c0.32363-10.73 0.18815-15.709-0.36732-13.5-1.7005 6.7628-2.0474 32.766-0.41109 30.817 0.14612-0.17409 0.49641-7.9665 0.77841-17.317zm-183.56 11.75c-0.25153-0.9625-0.45733-0.175-0.45733 1.75s0.2058 2.7125 0.45733 1.75c0.25152-0.9625 0.25152-2.5375 0-3.5zm217.25 1c-0.055-3.2556-0.18267-3.4532-0.96818-1.4989-0.80412 2.0006-0.40894 5.2489 0.63856 5.2489 0.21615 0 0.36449-1.6875 0.32962-3.75zm101.76 0.019c-0.25354-0.97297-0.47766-0.41903-0.49804 1.231-0.0204 1.65 0.18706 2.4461 0.46099 1.769 0.27392-0.67703 0.29059-2.027 0.0371-3zm-570.47-2.519c0.20442-2.0625 0.01204-3.75-0.42752-3.75s-0.76367 2.1375-0.72025 4.75c0.0869 5.2284 0.57238 4.8054 1.1478-1zm406.46 3.0625c-0.31922-0.79773-0.55618-0.56078-0.60416 0.60417-0.0434 1.0542 0.19293 1.6448 0.52522 1.3125 0.33229-0.33229 0.36781-1.1948 0.0789-1.9167zm112.9-13.585c0.29345-8.0987 0.1298-11.988-0.45-10.694-1.3551 3.0238-2.3793 27.435-1.057 25.194 0.57521-0.97502 1.2534-7.5 1.507-14.5zm-65.84 12.19c-0.95295-0.95296-2.8635 0.5906-2.1533 1.7397 0.42212 0.683 0.98146 0.66575 1.6996-0.0524 0.58876-0.58876 0.79291-1.348 0.45366-1.6873zm6.4994 0.0596c0.26536-1.3881 0.0928-2.7647-0.38342-3.059-0.47624-0.29434-0.86589 0.8414-0.86589 2.5239 0 3.7124 0.59335 3.9666 1.2493 0.53515zm78.558-0.003c-0.30789-0.30789-0.86705 0.24711-1.2426 1.2333-0.54268 1.4252-0.42782 1.5401 0.5598 0.5598 0.68342-0.67834 0.99067-1.4852 0.68278-1.7931zm-141.81-4.1398c0-3.1167-0.30929-5.3574-0.68731-4.9794-1.0393 1.0393-1.221 10.646-0.20136 10.646 0.48877 0 0.88867-2.55 0.88867-5.6667zm-128.4 1.9375c-1.0165-1.0165-1.8552 0.51389-1.0212 1.8634 0.63003 1.0194 0.86558 1.0202 1.2043 0.004 0.2316-0.69479 0.14921-1.5351-0.18308-1.8674zm42.396 1.7292c0-0.55-0.42344-1-0.94098-1s-1.2191 0.45-1.559 1c-0.33992 0.55 0.0835 1 0.94098 1 0.85746 0 1.559-0.45 1.559-1zm6.9366-2.25c-0.0593-3.0399-0.12406-3.0986-1.0019-0.90765-0.5162 1.2883-0.68612 2.7508-0.37759 3.25 1.0238 1.6566 1.4436 0.94382 1.3795-2.3424zm38.813 0.76824c0-1.365-0.39375-2.2384-0.875-1.941-0.48125 0.29743-0.875 1.4142-0.875 2.4818 0 1.0675 0.39375 1.941 0.875 1.941s0.875-1.1168 0.875-2.4818zm65.25 0.48176c0-0.55-0.92656-1-2.059-1-1.1325 0-1.7809 0.45-1.441 1 0.33992 0.55 1.2665 1 2.059 1 0.79254 0 1.441-0.45 1.441-1zm240.5 0c-0.33992-0.55-1.0415-1-1.559-1-0.51754 0-0.94098 0.45-0.94098 1s0.70156 1 1.559 1c0.85746 0 1.2809-0.45 0.94098-1zm-492.91-3.7449c-1.0755-1.0755-1.6464 0.43075-0.89148 2.3518 0.7082 1.8021 0.76169 1.8052 1.1119 0.0649 0.20237-1.0056 0.10317-2.093-0.22045-2.4167zm133.41 1.7449c0-0.55-0.47656-1-1.059-1-0.58246 0-0.7809 0.45-0.44098 1s0.81648 1 1.059 1c0.24254 0 0.44098-0.45 0.44098-1zm103.69-2.731c-0.25354-0.97297-0.47766-0.41903-0.49804 1.231-0.0204 1.65 0.18706 2.4461 0.46099 1.769 0.27392-0.67703 0.29059-2.027 0.0371-3zm311.31 1.6129c0-0.55-0.45-0.72189-1-0.38197s-1 1.068-1 1.618 0.45 0.72189 1 0.38197 1-1.068 1-1.618zm-757.5 0.11803c0.33992-0.55-0.11008-1-1-1s-1.3399 0.45-1 1c0.33992 0.55 0.78992 1 1 1s0.66008-0.45 1-1zm13.485-3.25c0.0084-0.4125-0.61756-0.75-1.3911-0.75-0.93306 0-1.2229 0.70155-0.86126 2.0845 0.41445 1.5849 0.74789 1.7646 1.3911 0.75 0.46528-0.73399 0.85285-1.672 0.86127-2.0845zm335.75-6.4777c-0.21648-2.0748-0.39722-0.6223-0.40166 3.2277-0.004 3.85 0.17268 5.5475 0.39359 3.7723s0.22454-4.9252 0.008-7zm143.53-2.5223c0.22158-5.9125 0.0288-10.75-0.42844-10.75-0.8039 0-0.98028 1.3851-1.4007 11-0.20399 4.6653 0.65195 13.258 1.1455 11.5 0.1544-0.55 0.46203-5.8375 0.6836-11.75zm6.4234 10.062c-0.31922-0.79773-0.55618-0.56078-0.60416 0.60417-0.0434 1.0542 0.19293 1.6448 0.52522 1.3125 0.33229-0.33229 0.36781-1.1948 0.0789-1.9167zm225.32 1.1875c0-0.55-0.19844-1-0.44098-1s-0.7191 0.45-1.059 1c-0.33992 0.55-0.14148 1 0.44098 1s1.059-0.45 1.059-1zm-750-1c0-0.55-0.45-1-1-1s-1 0.45-1 1 0.45 1 1 1 1-0.45 1-1zm422-2.0833c0-1.7545-0.46329-2.9289-1.075-2.725-0.59125 0.19708-1.0412 0.68458-1 1.0833 0.0412 0.39875 0.075 1.625 0.075 2.725s0.45 2 1 2 1-1.3875 1-3.0833zm175.14-9.3045c-0.23992-3.2959-0.64205-4.4358-1.2347-3.5-1.0671 1.685-1.1396 6.9827-0.16965 12.388l0.71784 4 0.52115-4c0.28664-2.2 0.36105-6.1995 0.16535-8.8878zm52.856 11.388c0-0.55-0.47656-1-1.059-1-0.58246 0-0.7809 0.45-0.44098 1s0.81648 1 1.059 1c0.24254 0 0.44098-0.45 0.44098-1zm-578-4.5c0-2.475-0.45-4.5-1-4.5s-1 2.025-1 4.5 0.45 4.5 1 4.5 1-2.025 1-4.5zm711.98-0.30902c0.009-1.2876-0.42706-2.0356-0.98469-1.691-0.55 0.33992-0.99311 2.054-0.98469 3.809 0.0117 2.4281 0.24708 2.8324 0.98469 1.691 0.53316-0.825 0.97627-2.5391 0.98469-3.809zm-180.29 0.078c-0.25354-0.97297-0.47766-0.41903-0.49804 1.231-0.0204 1.65 0.18706 2.4461 0.46099 1.769 0.27392-0.67703 0.29059-2.027 0.0371-3zm-546.69 0.66c0-0.51754-0.45-0.94098-1-0.94098s-1 0.70156-1 1.559c0 0.85746 0.45 1.2809 1 0.94098s1-1.0415 1-1.559zm177.72-4.6772c-0.22985-1.5201-0.42406-0.51375-0.43157 2.2362-0.008 2.75 0.18056 3.9937 0.41792 2.7638s0.24351-3.4799 0.0137-5zm462.34 3.186c-0.86505-2.8964-0.88254-2.903-0.96694-0.3664-0.0473 1.4208 0.21405 2.8833 0.58072 3.25 1.1611 1.1611 1.2952 0.15993 0.38622-2.8836zm-497.08-0.69973c-0.0258-2.7617-0.18865-2.978-1.0837-1.4393-0.5793 0.9959-0.80474 2.4584-0.50098 3.25 0.92433 2.4088 1.6167 1.6176 1.5847-1.8107zm479.02 2.5c-0.008-0.4125-0.45153-1.425-0.98469-2.25-0.78387-1.213-0.9723-1.0694-0.98469 0.75-0.008 1.2375 0.43469 2.25 0.98469 2.25s0.99311-0.3375 0.98469-0.75zm-217.95-35.61c-1.7215-1.7215-1.9048-0.39398-1.0265 7.4374 0.46732 4.1671 0.7104 10.917 0.54016 14.999-0.17023 4.0824-0.0272 8.7725 0.31791 10.423 0.34509 1.65 0.7509-4.8415 0.9018-14.426 0.16927-10.751-0.11164-17.812-0.73334-18.433zm87.896 30.609c-0.0475-3.558-0.27273-4.233-0.89759-2.6897-0.76171 1.8812-0.33019 7.4397 0.57756 7.4397 0.21088 0 0.3549-2.1375 0.32003-4.75zm-225.94 2.191c0-0.85746-0.45-1.2809-1-0.94098s-1 1.0415-1 1.559c0 0.51754 0.45 0.94098 1 0.94098s1-0.70156 1-1.559zm166.53-11.246c-1.3119-1.3119-2.3832 1.5324-2.1028 5.5835 0.54133 7.8217 0.79055 8.0115 1.6631 1.2667 0.45926-3.5502 0.65713-6.6327 0.43972-6.8501zm287.15 10.617c-0.31922-0.79773-0.55618-0.56078-0.60416 0.60417-0.0434 1.0542 0.19293 1.6448 0.52522 1.3125 0.33229-0.33229 0.36781-1.1948 0.0789-1.9167zm-610.18 0.1875c0.33992-0.55 0.14148-1-0.44098-1s-1.059 0.45-1.059 1 0.19844 1 0.44098 1 0.7191-0.45 1.059-1zm58.865-9.1517c0.59655-9.1029 0.39566-12.026-0.73974-10.765-0.71695 0.79641-1.3163 20.917-0.62306 20.917 0.38364 0 0.9969-4.5683 1.3628-10.152zm59.985 8.6837c0.30982-0.80739 0.13297-1.734-0.39301-2.059-0.52598-0.32508-0.95633 0.33551-0.95633 1.468 0 2.4146 0.55611 2.6582 1.3493 0.59105zm163.65 0.027c0-0.79254-0.45-1.7191-1-2.059-0.55-0.33992-1-0.40328-1-0.1408 0 0.26247-0.27314 1.189-0.60699 2.059-0.39831 1.038-0.0545 1.5818 1 1.5818 0.88385 0 1.607-0.64844 1.607-1.441zm-186-12.37c-0.007-17.403-1.2011-36.182-2.2599-35.528-0.5704 0.35253-0.70315 3.8836-0.32765 8.7148 0.78461 10.095 0.79144 27.886 0.0126 32.835-0.61784 3.9261 0.0975 6.2023 1.6482 5.244 0.51199-0.31643 0.92908-5.3863 0.92684-11.266zm159 7.6424c0-3.6413-0.43653-3.5093-1.3784 0.41667-0.39164 1.6325-0.24563 2.75 0.35933 2.75 0.56048 0 1.019-1.425 1.019-3.1667zm-254.22-0.91166c0.27057-2.3451 0.23106-2.3603-1.25-0.48054-1.852 2.3505-1.9804 3.8741-0.2794 3.3139 0.6875-0.22642 1.3757-1.5014 1.5294-2.8333zm87.106-3.6717c-0.11377-5.6885-0.12384-5.7072-0.94237-1.75-1.1352 5.4883-1.1198 7.5 0.0574 7.5 0.56406 0 0.94987-2.5067 0.885-5.75zm15.115 4.191c0-0.85746-0.45-1.2809-1-0.94098s-1 1.0415-1 1.559c0 0.51754 0.45 0.94098 1 0.94098s1-0.70156 1-1.559zm131.21-1.4177c0.24029-1.6372 0.0733-3.5497-0.37118-4.25-0.48471-0.76373-0.81421 0.42749-0.8234 2.9767-0.0178 4.9358 0.56575 5.5578 1.1946 1.2733zm-159.21 0.97674c0-0.55-0.45-1-1-1s-1 0.45-1 1 0.45 1 1 1 1-0.45 1-1zm42.5 0c0.33992-0.55 0.14148-1-0.44098-1s-1.059 0.45-1.059 1 0.19844 1 0.44098 1 0.7191-0.45 1.059-1zm6.1623-2.25c-0.27741-0.6875-0.50439-0.125-0.50439 1.25s0.22698 1.9375 0.50439 1.25 0.27741-1.8125 0-2.5zm387 0c-0.27741-0.6875-0.50439-0.125-0.50439 1.25s0.22698 1.9375 0.50439 1.25 0.27741-1.8125 0-2.5zm-605.66-0.25c0-1.375-0.17254-2.5-0.38342-2.5-0.21089 0-0.59848 1.125-0.86133 2.5s-0.09031 2.5 0.38342 2.5 0.86133-1.125 0.86133-2.5zm255.82-0.91159c0.17852-1.5166-0.0208-3.5068-0.44284-4.4229-0.91541-1.9867-1.114-2.9234-1.2664-5.9746-0.0634-1.27-0.50085-2.0708-0.97202-1.7796s-0.75912 2.2302-0.63989 4.309 0.27974 5.5046 0.35667 7.6129c0.16302 4.4673 2.4455 4.6637 2.9645 0.25508zm-136.38-4.45c-0.39537-3.1025-0.65981-6.6781-0.58764-7.9458 0.0743-1.3059-0.30182-2.0373-0.86786-1.6874-0.56111 0.34678-0.81329 3.1106-0.57529 6.3049 0.23307 3.1281 0.46065 6.7265 0.50572 7.9965 0.0492 1.3866 0.51379 2.0421 1.1629 1.6409 0.71045-0.43908 0.83458-2.6016 0.36214-6.309zm257.56 4.4181c0-3.5463-1.6819-4.0414-1.7819-0.52459-0.0464 1.6311 0.33559 2.9656 0.8488 2.9656 0.51322 0 0.93312-1.0984 0.93312-2.441zm164.05-12.912c-0.7292-0.7292-1.0469 1.2392-1.0469 6.4864 0 9.7907 1.4114 11.207 1.7969 1.803 0.16918-4.1271-0.15344-7.6928-0.75-8.2894zm70.89 10.603c-0.0531-3.9762-0.21569-4.37-0.99832-2.4174-0.82984 2.0704-0.35329 7.1674 0.67012 7.1674 0.21537 0 0.36307-2.1375 0.3282-4.75zm-447.94-0.80902c0-2.7847-0.38919-4.3185-1-3.941-0.55 0.33992-1 2.3915-1 4.559s0.45 3.941 1 3.941 1-2.0516 1-4.559zm-151 1.309c-0.00053-1.6945-0.61777-2.2856-2.5-2.3942-2.01-0.11598-2.4993 0.32455-2.4993 2.25 0 1.8872 0.52946 2.3942 2.5 2.3942 1.9261 0 2.4998-0.51648 2.4993-2.25zm282.9-2-0.10236-4.25-0.81742 3.4753c-0.74964 3.1872-0.53711 5.0247 0.58116 5.0247 0.24254 0 0.39492-1.9125 0.33862-4.25zm-52.44 2.3191c0.31644-0.512 0.11799-1.2136-0.44098-1.559-0.55897-0.34546-1.0163 0.0734-1.0163 0.9309 0 1.7565 0.60006 2.0152 1.4573 0.62812zm-30.289-20.904c-0.18258-4.0341-0.62068-7.046-0.97355-6.6931-0.84093 0.84093-1.1377 25.729-0.32228 27.028 0.87457 1.3931 1.6959-11.495 1.2958-20.335zm72.525 16.104c-0.25354-0.97297-0.47766-0.41903-0.49804 1.231-0.0204 1.65 0.18706 2.4461 0.46099 1.769 0.27392-0.67703 0.29059-2.027 0.0371-3zm-208.01 0.54347c-0.31922-0.79773-0.55618-0.56078-0.60416 0.60417-0.0434 1.0542 0.19293 1.6448 0.52522 1.3125 0.33229-0.33229 0.36781-1.1948 0.0789-1.9167zm121.32-1.5036c0-2.581-0.0601-2.6117-1.4682-0.75-1.8894 2.4981-1.8982 3.4411-0.0318 3.4411 0.96174 0 1.5-0.96568 1.5-2.6911zm69.83-3.3228c-0.18158-3.3077-0.78014-6.0077-1.3301-6-0.55 0.008-0.955 0.46397-0.9 1.014 0.055 0.55 0.1675 3.25 0.25 6 0.0846 2.8214 0.62064 5 1.2301 5 0.69039 0 0.96102-2.1701 0.75-6.014zm68.17 3.455c0-0.85746-0.45-1.2809-1-0.94098s-1 1.0415-1 1.559c0 0.51754 0.45 0.94098 1 0.94098s1-0.70156 1-1.559zm48 0.55902c0-0.55-0.675-1-1.5-1s-1.5 0.45-1.5 1 0.675 1 1.5 1 1.5-0.45 1.5-1zm-237.29-11-0.32374-2.5-1.1161 2.6131c-0.63076 1.4768-0.8479 4.5208-0.49932 7l0.61681 4.3869 0.82306-4.5c0.45269-2.475 0.67738-5.625 0.49932-7zm26.29 5c0-3.3-0.39287-6-0.87304-6-0.48016 0-0.76026 2.1375-0.62242 4.75 0.35178 6.6677 0.43174 7.25 0.99546 7.25 0.275 0 0.5-2.7 0.5-6zm240.66 2.75c-0.27741-0.6875-0.50439-0.125-0.50439 1.25s0.22698 1.9375 0.50439 1.25 0.27741-1.8125 0-2.5zm32.338 1.25c0-1.1-0.17252-2-0.38337-2s-0.61872 0.9-0.90638 2-0.11514 2 0.38337 2 0.90638-0.9 0.90638-2zm-434-3c0-2.2-0.4193-4-0.93178-4s-0.76848 1.2375-0.5689 2.75 0.39389 3.3125 0.43178 4c0.0379 0.6875 0.2939 1.25 0.5689 1.25s0.5-1.8 0.5-4zm92 0.55902c0-1.3425-0.45-2.7191-1-3.059-0.58342-0.36058-1 0.65628-1 2.441 0 1.6825 0.45 3.059 1 3.059s1-1.0984 1-2.441zm190.91-0.31c-0.0623-2.4368-0.16815-2.5222-0.92971-0.75-1.1737 2.7314-1.1737 3.5 0 3.5 0.55 0 0.96837-1.2375 0.92971-2.75zm142.75 0.5625c-0.31922-0.79773-0.55618-0.56078-0.60416 0.60417-0.0434 1.0542 0.19293 1.6448 0.52522 1.3125 0.33229-0.33229 0.36781-1.1948 0.0789-1.9167zm279.32 1.1875c0-0.55-0.45-1-1-1s-1 0.45-1 1 0.45 1 1 1 1-0.45 1-1zm-721.07-5.31c-0.05464-3.2582-0.26157-3.7458-0.92971-2.191-1.2152 2.8279-1.2152 7.751 0 7 0.55-0.33992 0.96837-2.504 0.92971-4.809zm198.73 2.059c-0.27741-0.6875-0.50439-0.125-0.50439 1.25s0.22698 1.9375 0.50439 1.25 0.27741-1.8125 0-2.5zm91.164-7.523c-0.037-6.2384-0.33901-8.8304-0.84207-7.227-1.1424 3.641-1.1773 18.238-0.042 17.536 0.51796-0.32012 0.91579-4.9592 0.88405-10.309zm90.174 8.773c0-0.55-0.45-1-1-1s-1 0.45-1 1 0.45 1 1 1 1-0.45 1-1zm-223.32-2.1875c-0.31922-0.79773-0.55618-0.56078-0.60416 0.60417-0.0434 1.0542 0.19293 1.6448 0.52522 1.3125 0.33229-0.33229 0.36781-1.1948 0.0789-1.9167zm214.82 1.1875c0.33992-0.55 0.14148-1-0.44098-1s-1.059 0.45-1.059 1 0.19844 1 0.44098 1 0.7191-0.45 1.059-1zm-136.5-1.5c0-0.825-0.45-1.5-1-1.5s-1 0.675-1 1.5 0.45 1.5 1 1.5 1-0.675 1-1.5zm47.718-6.2362c-0.22985-1.5201-0.42406-0.51375-0.43157 2.2362-0.007 2.75 0.18056 3.9937 0.41792 2.7638s0.24351-3.4799 0.0136-5zm40.999-1.0138c-0.22912-1.5125-0.41659-0.275-0.41659 2.75s0.18747 4.2625 0.41659 2.75c0.22913-1.5125 0.22913-3.9875 0-5.5zm-116.72 3.05c0-2.2806-0.35412-3.3356-0.92307-2.75-0.83771 0.86215-0.3702 6.45 0.53965 6.45 0.21088 0 0.38342-1.665 0.38342-3.7zm147 2.7c0-0.55-0.47656-1-1.059-1-0.58246 0-0.7809 0.45-0.44098 1s0.81648 1 1.059 1c0.24254 0 0.44098-0.45 0.44098-1zm87.872-6.25-0.12835-7.25-0.98334 5.7377c-0.90245 5.2658-0.61967 8.7623 0.70867 8.7623 0.29226 0 0.47362-3.2625 0.40302-7.25zm-123.94-2c-0.0523-5.1531-0.23659-5.816-1.0502-3.7771-0.88211 2.2105-0.33524 10.027 0.70152 10.027 0.22665 0 0.38358-2.8125 0.34871-6.25zm546.06 4.691c0-0.85746-0.4573-1.2764-1.0163-0.9309-0.559 0.34546-0.7574 1.047-0.441 1.559 0.8572 1.387 1.4573 1.1284 1.4573-0.62812zm-756.09-4.441c0.0489-1.3333-0.0527-1.3333-0.9144 0-0.53316 0.825-0.94464 2.4-0.9144 3.5 0.055 2 0.055 2 0.9144 0 0.47269-1.1 0.88417-2.675 0.9144-3.5zm56.986 0.75c-0.0812-3.463-0.23268-3.7871-0.81791-1.75-0.66781 2.3245-0.34055 6 0.53422 6 0.21085 0 0.33851-1.9125 0.28369-4.25zm311.7-15.5c0.45894-7.3221 0.35506-11.25-0.29752-11.25-1.0792 0-2.3748 14.456-2.1872 24.404 0.11116 5.8931 0.14274 5.963 0.94727 2.0964 0.45774-2.2 1.1496-9.0625 1.5374-15.25zm28.864 9.9946c-0.0493-11.932-0.55383-14.992-1.4418-8.7446-0.75837 5.3355-0.15685 17.504 0.86483 17.495 0.3372-0.003 0.59682-3.9405 0.57694-8.75zm-365.55 4.0054c-0.0482-2.0625-0.43805-6-0.86638-8.75-0.71486-4.5896-0.78975-4.2818-0.9124 3.75-0.0803 5.2557 0.26573 8.75 0.86639 8.75 0.55 0 0.96058-1.6875 0.91239-3.75zm36.985-0.5-0.10236-4.25-0.81742 3.4753c-0.74964 3.1872-0.53711 5.0247 0.58116 5.0247 0.24254 0 0.39492-1.9125 0.33862-4.25zm87.785 1.0625c-0.31922-0.79773-0.55618-0.56078-0.60416 0.60417-0.0434 1.0542 0.19293 1.6448 0.52522 1.3125 0.33229-0.33229 0.36781-1.1948 0.0789-1.9167zm89.317-8.8715c0-5.294-0.4079-8.941-1-8.941-0.59692 0-1 3.853-1 9.559 0 6.118 0.35997 9.3365 1 8.941 0.55-0.33992 1-4.6415 1-9.559zm24.683 5.8715c-0.31922-0.79773-0.55618-0.56078-0.60416 0.60417-0.0434 1.0542 0.19293 1.6448 0.52522 1.3125 0.33229-0.33229 0.36781-1.1948 0.0789-1.9167zm-246.02-2.0625c-0.27741-0.6875-0.50439-0.125-0.50439 1.25s0.22698 1.9375 0.50439 1.25 0.27741-1.8125 0-2.5zm150.34 0.75c0-1.375-0.44496-2.5-0.9888-2.5s-0.89569 1.125-0.78189 2.5 0.55876 2.5 0.9888 2.5 0.78189-1.125 0.78189-2.5zm-294.54 0.5691c0.31644-0.512 0.11799-1.2136-0.44098-1.559-0.55897-0.34546-1.0163 0.0734-1.0163 0.9309 0 1.7565 0.60006 2.0152 1.4573 0.62812zm276.53-2.8191c-0.01-2.3904-0.31757-3.2734-0.84897-2.4354-0.77196 1.2174-0.38574 6.1854 0.48086 6.1854 0.21088 0 0.37653-1.6875 0.36811-3.75zm157.62-3.8099-1.4367-5.9401-0.0833 5.55c-0.0478 3.1849 0.44404 6.0774 1.1542 6.7875 1.8594 1.8594 1.9557 0.1761 0.36579-6.3974zm-509.6 4.5009c0-0.51754-0.45-0.94098-1-0.94098s-1 0.70156-1 1.559c0 0.85746 0.45 1.2809 1 0.94098s1-1.0415 1-1.559zm179.5 1.059c0.33992-0.55 0.14148-1-0.44098-1s-1.059 0.45-1.059 1 0.19844 1 0.44098 1 0.7191-0.45 1.059-1zm115.23-5.5551c0.16452-2.522-0.14772-4.4449-0.72179-4.4449-0.55646 0-1.0118 2.325-1.0118 5.1667 0 6.163 1.3203 5.6132 1.7335-0.7218zm63.167-5.2539c0.0548-3.47-0.25722-6.0884-0.69343-5.8188-0.43622 0.26959-0.85905 4.2336-0.93963 8.809-0.0993 5.637 0.12427 7.5129 0.69343 5.8188 0.46197-1.375 0.88481-5.3391 0.93963-8.809zm58.076-10.604c-0.79627-0.7885-0.97285 1.9324-0.64336 9.9132 0.24977 6.05 0.59699 11.225 0.77161 11.5 0.17461 0.275 0.46412-4.186 0.64336-9.9132 0.20825-6.6541-0.0703-10.806-0.77161-11.5zm62.731 16.175c-0.23919-1.2439-0.44398-0.46166-0.45508 1.7383s0.18461 3.2178 0.4349 2.2617c0.25029-0.95609 0.25937-2.7561 0.0202-4zm-84.55-2.1826c-0.82056-1.554-2.139 3.3076-1.4026 5.1721 0.54595 1.3823 0.81631 1.12 1.2898-1.2511 0.32948-1.65 0.38023-3.4144 0.11277-3.921zm29.813 3.671c-0.0261-2.359-0.17597-2.5-1.0541-0.99208-0.56304 0.96686-0.7478 2.2044-0.41058 2.75 1.034 1.673 1.4965 1.1178 1.4647-1.7579zm-213.48-11c0.41844-6.3996 0.30672-10.25-0.29739-10.25-1.3512 0-2.0767 5.4049-1.6777 12.5 0.18555 3.3 0.37116 6.6375 0.41246 7.4167 0.21543 4.0643 0.97009-0.60407 1.5626-9.6667zm219.08-1.91c-0.91069-3.6285-2.9132-2.909-2.1751 0.78147 0.34375 1.7188 0.66558 4.3062 0.71519 5.75 0.0816 2.3743 0.18368 2.2997 1.0691-0.78147 0.53842-1.8736 0.71426-4.4611 0.39075-5.75zm-119.03-4.7184c0.75419-13.33-0.82734-15.747-1.8264-2.7912-0.52656 6.8282-0.005 15.812 0.86739 14.94 0.15841-0.15842 0.58999-5.6252 0.95905-12.148zm-15.582 2.6249c-0.0402-4.9165-0.35486-7.0188-0.86062-5.75-0.43848 1.1-0.68191 3.8-0.54095 6s0.30324 4.7875 0.36062 5.75c0.0574 0.9625 0.32934 1.75 0.60434 1.75s0.47148-3.4875 0.43661-7.75zm98.063 5.75c0-0.55-0.45-1-1-1s-1 0.45-1 1 0.45 1 1 1 1-0.45 1-1zm556-1c0-0.55-0.4766-1-1.059-1-0.5825 0-0.7809 0.45-0.441 1s0.8165 1 1.059 1c0.2426 0 0.441-0.45 0.441-1zm-702.14-10.5c0-3.6729-0.22811-4.4692-0.85943-3-0.47269 1.1-0.85943 4.25-0.85943 7 0 3.6729 0.22811 4.4692 0.85943 3 0.47269-1.1 0.85943-4.25 0.85943-7zm32.824 5.3125c-0.31922-0.79773-0.55618-0.56078-0.60416 0.60417-0.0434 1.0542 0.19293 1.6448 0.52522 1.3125 0.33229-0.33229 0.36781-1.1948 0.0789-1.9167zm106.32 0.12848c0-1.1325-0.43035-1.793-0.95633-1.468-0.52598 0.32507-0.70283 1.2516-0.39301 2.059 0.79323 2.0671 1.3493 1.8235 1.3493-0.59105zm113.9-1.191c-0.0932-3.0378-0.14818-3.0868-0.84247-0.75-0.40854 1.375-0.56213 2.8375-0.34131 3.25 0.83871 1.5667 1.2799 0.63494 1.1838-2.5zm33.1-1.75c0-2.75-0.45-5-1-5-1.0922 0-1.3667 5.8807-0.39301 8.4182 1.0286 2.6806 1.393 1.7865 1.393-3.4182zm23.707-0.23834c-0.23919-1.2439-0.44398-0.46166-0.45508 1.7383s0.18461 3.2178 0.4349 2.2617c0.25029-0.95609 0.25937-2.7561 0.0202-4zm-127.98-1.7565c-0.27395-4.8193-1.7271-5.3846-1.7271-0.67185 0 2.9111 0.61836 4.6667 1.6438 4.6667 0.17073 0 0.20823-1.7977 0.0833-3.9948zm-148.47-12.74c0.21306-7.2875 0.0467-13.25-0.36976-13.25-1.124 0-1.4269 5.1987-1.0197 17.5 0.46115 13.929 0.89693 12.596 1.3894-4.25zm263.41 11.5c-0.27741-0.6875-0.50439-0.125-0.50439 1.25s0.22698 1.9375 0.50439 1.25 0.27741-1.8125 0-2.5zm-339.97-3.5c-0.25153-0.9625-0.45733-0.175-0.45733 1.75s0.2058 2.7125 0.45733 1.75c0.25152-0.9625 0.25152-2.5375 0-3.5zm24.754-16.699c-0.55422-11.95-1.4145-15.388-1.4932-5.968-0.0272 3.2542-0.16581 9.6406-0.30802 14.192s-0.01 8.5238 0.29372 8.8276c1.2667 1.2667 1.9819-6.823 1.5075-17.052zm216.22 13.199c-0.27741-0.6875-0.50439-0.125-0.50439 1.25s0.22698 1.9375 0.50439 1.25 0.27741-1.8125 0-2.5zm-144.69-3.5c-0.0238-4.4998-0.25841-5.3581-1.079-3.9476-0.93853 1.6132-0.35719 9.6976 0.69735 9.6976 0.22665 0 0.39842-2.5875 0.38169-5.75zm225.59 2.5c-0.23325-1.7875-0.45446-4.5141-0.49158-6.059-0.0371-1.545-0.45142-2.5717-0.92066-2.2817-0.81176 0.50169-0.56398 7.689 0.3565 10.341 0.8394 2.4182 1.4751 1.2139 1.0557-2zm7.4409 2.25c0-0.55-0.45-1-1-1s-1 0.45-1 1 0.45 1 1 1 1-0.45 1-1zm24.93-2.75c-0.0386-0.4125-0.45702-1.65-0.92971-2.75-0.76156-1.7722-0.86743-1.6868-0.92971 0.75-0.0387 1.5125 0.37971 2.75 0.92971 2.75s0.96837-0.3375 0.92971-0.75zm-301.54-6.9453c0.35682-3.6961 0.19753-6.4429-0.39487-6.809-0.62229-0.38459-0.99296 2.0837-0.99296 6.612 0 8.632 0.56577 8.7123 1.3878 0.19702zm124.3 4.5078c-0.31922-0.79773-0.55618-0.56078-0.60416 0.60417-0.0434 1.0542 0.19293 1.6448 0.52522 1.3125 0.33229-0.33229 0.36781-1.1948 0.0789-1.9167zm110.32-1.8125c0-2.4636-1.8451-3.5672-2.614-1.5634-0.78788 2.0532 0.32179 4.862 1.607 4.0678 0.55388-0.34232 1.0071-1.4693 1.0071-2.5044zm8.5592-6.7742c-1.2967-1.2967-1.6554 0.90694-0.8842 5.4325l0.82502 4.8416 0.30918-4.8575c0.17005-2.6716 0.0576-5.1091-0.25-5.4167zm14.284 3.0242-0.15711-5.75-0.6203 5c-0.59403 4.7882-0.46406 6.5 0.49353 6.5 0.24254 0 0.37028-2.5875 0.28388-5.75zm19.157 0.05c0-3.0491-0.34206-4.3579-0.97383-3.7262-0.86529 0.86529-0.32271 8.4262 0.60467 8.4262 0.20304 0 0.36916-2.115 0.36916-4.7zm-313.31-0.031c-0.25354-0.97297-0.47766-0.41903-0.49804 1.231-0.0204 1.65 0.18706 2.4461 0.46099 1.769 0.27392-0.67703 0.29059-2.027 0.037-3zm286.83-7c-0.34614-1.3792-0.80871-2.3282-1.0279-2.109-0.85796 0.85797-1.5532 10.949-0.83415 12.108 1.0613 1.711 2.6542-6.8428 1.8621-9.9989zm-301.15 5.4784c0.39164-1.6325 0.24563-2.75-0.35933-2.75-0.56048 0-1.019 1.425-1.019 3.1667 0 3.6413 0.43653 3.5093 1.3784-0.41667zm62.305-0.9375c-0.31922-0.79773-0.55618-0.56078-0.60416 0.60417-0.0434 1.0542 0.19293 1.6448 0.52522 1.3125 0.33229-0.33229 0.36781-1.1948 0.0789-1.9167zm113.53-2.0995c-0.52762-2.0176-0.55963-2.0129-1.3794 0.20305-0.46157 1.2477-0.5571 2.7251-0.21228 3.283 0.98098 1.5873 2.2128-1.1107 1.5916-3.4861zm39.785-2.213c0-3.025-0.45-5.5-1-5.5s-1 2.475-1 5.5 0.45 5.5 1 5.5 1-2.475 1-5.5zm156 3.5c0-0.55-0.47656-1-1.059-1-0.58246 0-0.7809 0.45-0.44098 1s0.81648 1 1.059 1c0.24254 0 0.44098-0.45 0.44098-1zm-649-4c0-0.55-0.19844-1-0.44098-1s-0.7191 0.45-1.059 1c-0.33992 0.55-0.14148 1 0.44098 1s1.059-0.45 1.059-1zm604.11-3.2875c-0.81667-0.81667-1.1125-0.70476-1.1125 0.42083 0 1.9879 1.3447 3.3326 1.8417 1.8417 0.21083-0.6325-0.11729-1.6506-0.72917-2.2625zm-281.11-1.2125c0-1.925-0.45-3.5-1-3.5s-1 1.575-1 3.5 0.45 3.5 1 3.5 1-1.575 1-3.5zm92.93-0.75c0.0387-0.4125-0.33157-0.75-0.82272-0.75-1.2543 0-2.2499 2.9597-1.4377 4.2739 0.60512 0.9791 2.0495-1.2725 2.2604-3.5239zm-74.93-1.75c0-1.65-0.17393-3-0.3865-3-0.21258 0-0.58464 1.35-0.82681 3s-0.0682 3 0.3865 3c0.45475 0 0.82681-1.35 0.82681-3zm158.1-5.2962c-1.2835-1.2835-2.585-0.2915-1.6348 1.246 0.36808 0.59556 1.1274 0.79971 1.6873 0.45366 0.683-0.42212 0.66575-0.98146-0.0524-1.6996zm-19.604-3.946c2.2-0.60807 4.3809-1.4307 4.8464-1.8281 0.46553-0.3974 3.5323-0.479 6.815-0.18133 4.8816 0.44264 6.7763 0.13783 10.404-1.6737 2.4392-1.2182 4.435-2.5823 4.435-3.0312 0-0.44897 2.0627-1.1256 4.5838-1.5037 5.6319-0.84456 14.569-5.579 15.9-8.4233 0.61056-1.3044 1.6009-1.9068 2.6088-1.5869 2.5858 0.82069 3.7264-1.5705 4.005-8.3956 0.23312-5.7119 0.0134-6.5433-2.1693-8.2072-1.3358-1.0183-3.7787-2.1206-5.4287-2.4496-4.074-0.81219-11.618-4.6203-12.21-6.1636-0.69263-1.805-11.007-6.3135-14.443-6.3135-3.3809 0-9.847 2.4867-9.847 3.7868 0 0.48889-2.025 0.96549-4.5 1.0591-2.475 0.0936-4.5-0.22832-4.5-0.71542 0-1.2516 2.1596-2.8518 4.4171-3.2729 2.3635-0.44088 3.3498-2.8576 1.1662-2.8576-0.87083 0-1.5833-0.41968-1.5833-0.93261 0-1.4014 3.6978-2.2951 6.25-1.5106 1.2375 0.38039 1.9353 0.35855 1.5508-0.04853-0.38459-0.40708-2.1846-1.0439-4-1.4152-4.0659-0.83156-3.8783-2.301 0.44457-3.483l3.2547-0.88991-3.25-0.88868c-3.5166-0.96158-4.4229-2.8315-1.3724-2.8315 1.0326 0 2.4378-0.675 3.1224-1.5 1.0614-1.2789 0.78457-1.5-1.8776-1.5-3.8589 0-4.0587-1.5033-0.37244-2.8026l2.75-0.96926-2.5-1.0507c-1.7777-0.74714-1.9944-1.069-0.75-1.1141 0.9625-0.03487 1.75-0.46724 1.75-0.96084 0-0.49359-1.3293-0.83109-2.9539-0.75-4.0423 0.20178-3.9093-1.7254 0.16455-2.3856l3.2894-0.53311-4.3081-0.738c-3.3497-0.57382-5.3508-0.27675-8.9953 1.3354-8.0777 3.5732-20.836 5.8378-28.215 5.008-3.5851-0.40315-7.4101-1.2014-8.5-1.7738-8.7351-4.5881-13.486-6.2654-17.746-6.2654-3.8134 0-4.751-0.34081-4.8146-1.75-0.0472-1.0454-0.28201-1.2467-0.58333-0.5-0.27741 0.6875-1.4794 1.2643-2.671 1.2818-2.1024 0.03086-2.1101 0.07459-0.26049 1.4744 1.8458 1.3969 1.83 1.4731-0.5 2.4048-2.3902 0.95579-2.3913 0.96259-0.15618 1.0256 2.3604 0.0665 3.0018 1.4807 1.1818 2.6055-0.5875 0.3631-0.83119 1.2778-0.54154 2.0326 0.28966 0.75483-0.18745 1.772-1.0602 2.2605-1.0905 0.61025-1.2339 1.1062-0.45847 1.5855 1.3526 0.83594 1.5233 5.5794 0.20077 5.5794-0.51021 0-1.6774 1.6994-2.5938 3.7764-1.9569 4.4353-5.2605 6.7652-19.572 13.803-9.3742 4.6098-10.899 5.7308-13.25 9.7431-2.7272 4.6536-3.44 9.0759-1.6419 10.187 0.55833 0.34507 1.6138 2.0591 2.3454 3.809 0.73161 1.7499 2.6373 3.8453 4.2348 4.6565 1.5975 0.81118 4.1767 2.4987 5.7314 3.75s3.6451 2.2751 4.6453 2.2751 4.9725 1.3421 8.8272 2.9824c3.8548 1.6404 8.9644 3.194 11.355 3.4525 9.387 1.0152 13.413 1.8863 14.972 3.2393 0.89429 0.77618 3.2568 1.617 5.25 1.8685 1.9932 0.25149 5.199 0.65397 7.124 0.89439 2.5792 0.32212 3.5 0.059 3.5-1 0-1.5507 1.2138-1.8976 2.4044-0.68713 0.40573 0.4125 4.8682 1.2154 9.9167 1.7841 9.2776 1.0453 11.116 0.83412 24.179-2.7763zm-24-17.163 5-1.336-4.9218-0.37926c-6.2408-0.48091-7.5701-2.8793-1.5958-2.8793 2.282 0 5.0877-0.50235 6.235-1.1163 1.7338-0.92788 1.9865-0.85744 1.4974 0.41724-0.66066 1.7216 1.8099 3.0955 3.6255 2.0161 3.4352-2.0423 8.6598-6.8187 8.6598-7.917 0-0.69588 0.9-1.5509 2-1.9 1.1-0.34913 2-0.99557 2-1.4366 0-0.44097 1.4625-1.0474 3.25-1.3475 1.7875-0.30017 4.0375-0.8572 5-1.2378 1.0295-0.40715 1.75-0.23633 1.75 0.41492 0 0.60885-0.45894 1.107-1.0199 1.107-0.56093 0-2.802 1.125-4.9801 2.5s-4.4097 2.5-4.959 2.5c-0.54931 0-3.4582 2.4991-6.4642 5.5535l-5.4655 5.5535-7.3056 0.41179-7.3056 0.4118 5-1.336zm23.5-18.121c0-0.23226 1.35-1.1204 3-1.9737 1.65-0.85325 3-1.1338 3-0.62351 0 0.51032-1.35 1.3985-3 1.9737-1.65 0.57519-3 0.85577-3 0.6235zm8.5589-7.9419c1.0676-0.8075 2.6161-1.4682 3.4411-1.4682 1.133 0 1.0251 0.35919-0.44113 1.4682-1.0676 0.80751-2.6161 1.4682-3.4411 1.4682-1.133 0-1.0251-0.35919 0.44113-1.4682zm-87.112 42.383c-0.32197-0.52097-1.0116-0.68378-1.5326-0.3618-0.52097 0.32197-0.68378 1.0116-0.3618 1.5326 0.32197 0.52097 1.0116 0.68378 1.5326 0.3618 0.52097-0.32197 0.68378-1.0116 0.3618-1.5326zm-54.168-5.7056c0.23498-2.3498 0.0433-4.5097-0.42593-4.7998-0.46924-0.29001-0.85317 1.8243-0.85317 4.6984 0 6.1342 0.6705 6.1873 1.2791 0.10136zm610.15 1.308c1.1414-0.7151 4.3253-1.6112 7.0753-1.9912 2.75-0.38007 7.025-1.5796 9.5-2.6655 3.3255-1.4591 5.6745-1.8154 9-1.3652 3.8245 0.51781 5.022 0.22247 7.9776-1.9675 1.9127-1.4172 5.1851-2.8498 7.2722-3.1835 4.8536-0.77613 5.6269-2.0594 2.0604-3.4193-4.0232-1.534-10.79-0.2384-17.783 3.4045-3.4365 1.7903-8.3911 3.4175-11.527 3.7857-3.025 0.35522-9.775 1.873-15 3.3727-7.2531 2.0819-11.451 2.6945-17.75 2.5901-4.5375-0.0752-8.25 0.116-8.25 0.4249 0 2.4115 23.79 3.2913 27.425 1.0142zm-14.023-6.6321c7.3345-2.3022 16.326-7.3102 20.9-11.642 9.314-8.8181 12.561-19.475 10.585-34.743-0.6404-4.95-1.7197-9.675-2.3983-10.5-0.6787-0.825-2.0268-3.207-2.996-5.2932-1.9067-4.1046-9.1949-10.707-11.819-10.707-0.8912 0-3.5448-0.85694-5.897-1.9043-12.626-5.6217-12.033-5.5139-22.789-4.1432-8.2463 1.0509-10.954 1.8596-15.605 4.6599-7.6476 4.6052-10.609 7.7256-14.741 15.533-6.0557 11.443-6.9726 24.147-2.6584 36.833 1.4121 4.1524 3.2888 6.8353 7.7522 11.083 12.573 11.965 25.121 15.389 39.665 10.823zm-13.516-2.9878c-8.001-0.85349-10.987-2.3092-18.133-8.8401-7.738-7.0721-10.194-13.071-9.432-23.038 0.7617-9.962 2.1505-14.347 5.8938-18.611 5.251-5.9805 18.199-11.383 27.286-11.386 8.5851-0.0022 14.979 3.2683 25.538 13.063 5.3516 4.9642 7.4042 17.697 4.4543 27.63-1.8326 6.1711-12.299 17.736-17.028 18.816-1.6299 0.37222-4.9885 1.2155-7.4635 1.874-2.8615 0.7613-6.9083 0.9403-11.114 0.49162zm20.614-12.897c0.3399-0.55 0.1415-1-0.441-1-0.5824 0-1.059 0.45-1.059 1s0.1984 1 0.441 1c0.2425 0 0.7191-0.45 1.059-1zm9-8c0.3399-0.55 0.1415-1-0.441-1-0.5824 0-1.059 0.45-1.059 1s0.1984 1 0.441 1c0.2425 0 0.7191-0.45 1.059-1zm-35.91-12.627c-0.3433-0.89471-0.1113-2.2447 0.5155-3 0.7683-0.92571 0.7924-1.3732 0.0739-1.3732-1.1008 0-4.1791 3.8468-4.1791 5.2225 0 0.42762 0.9481 0.77749 2.107 0.77749 1.535 0 1.9375-0.44162 1.4827-1.6268zm-14.486-5.6694c-1.2835-1.2835-2.5851-0.2915-1.6348 1.246 0.368 0.59556 1.1273 0.79971 1.6872 0.45366 0.683-0.42212 0.6658-0.98146-0.0524-1.6996zm8.3314-8.8086c-0.7275-1.1771-4.4352-1.1592-4.4352 0.02145 0 0.50416 0.5625 1.1129 1.25 1.3527 1.7486 0.60996 3.851-0.297 3.1852-1.3741zm5.0648-0.89522c0.3399-0.55 0.1415-1-0.441-1-0.5824 0-1.059 0.45-1.059 1s0.1984 1 0.441 1c0.2425 0 0.7191-0.45 1.059-1zm-363.5 50.5c0-0.825-0.45-1.5-1-1.5s-1 0.675-1 1.5 0.45 1.5 1 1.5 1-0.675 1-1.5zm420.47-4.945c6.4155-2.8373 7.0928-3.9391 1.8124-2.9485-3.8019 0.71324-12.284 4.1245-12.284 4.9403 0 1.2394 5.5539 0.18302 10.472-1.9918zm-606.47-0.99601c0-0.79254-0.45-1.7191-1-2.059-0.55-0.33992-1 0.30852-1 1.441s0.45 2.059 1 2.059 1-0.64844 1-1.441zm636.8-1.9005c1.2949 0.33861 2.198 0.11598 2.198-0.54185 0-1.0612-1.4261-1.5559-3.4084-1.1823-0.4996 0.0942-1.2474-0.37747-1.6619-1.0481-0.8477-1.3717-10.93-2.0467-10.93-0.73181 0 0.46502 0.9415 0.8455 2.0923 0.8455 1.1507 0 3.2393 0.9023 4.6413 2.0051 1.7105 1.3454 2.931 1.6882 3.7098 1.0418 0.6384-0.5298 2.1498-0.70462 3.3586-0.38849zm-16.802-2.1579c1.0772-1.298 0.7914-1.4145-2.1276-0.86776-4.6267 0.86668-6.0177 2.3672-2.1943 2.3672 1.6926 0 3.6375-0.67472 4.3219-1.4994zm-6.4995-1.9296c11.106-2.9064 13.4-3.2705 14.388-2.2835 0.6452 0.64522 1.5634 0.40446 2.6673-0.69941 0.9258-0.92584 1.4833-1.8833 1.2389-2.1278-1.2667-1.2666-13.325-0.96459-20.685 0.51814-6.8737 1.3847-8.7418 2.1711-10.327 4.3474l-1.9355 2.657 4.8272-0.55174c2.655-0.30346 7.0772-1.1405 9.8272-1.8602zm-436.5-4.571c0-0.55-0.47656-1-1.059-1-0.58246 0-0.7809 0.45-0.44098 1s0.81648 1 1.059 1c0.24254 0 0.44098-0.45 0.44098-1zm-24.919-11.402c-1.2685-1.5284-5.9933-3.0196-6.8508-2.1621-0.52055 0.52056 5.409 3.4471 7.1418 3.5249 0.47985 0.0215 0.34889-0.59171-0.29101-1.3628zm-57.98-34.589c3.6254-0.97872 8.0695-2.6154 9.8759-3.6371s4.4652-2.5137 5.9084-3.3156c2.2085-1.227 2.3393-1.5173 0.82608-1.8326-0.98892-0.20603-2.3757 0.10485-3.0818 0.69084-0.70608 0.58599-5.2097 2.6482-10.008 4.5826-7.229 2.9144-9.986 3.5171-16.086 3.5171-4.0492 0-8.074-0.27314-8.9439-0.60699-3.619-1.3888-1.0203-2.0085 8.1874-1.9524 9.5649 0.05819 9.9515-0.03113 18.492-4.2731 8.7525-4.3472 11.202-6.1675 8.2979-6.1675-0.85746 0-1.559-0.45-1.559-1s1.35-1 3-1c1.9543 0 3-0.50552 3-1.4503 0-0.79767 0.73279-1.8604 1.6284-2.3616 1.1219-0.62787 1.2751-1.1297 0.49233-1.6134-1.6683-1.031 1.1852-3.5671 4.0578-3.6064 2.143-0.02936 2.1869-0.1339 0.57143-1.3602-2.3503-1.7841-2.2034-2.5846 0.5-2.724 1.7777-0.09165 1.8711-0.21423 0.44466-0.58398-2.418-0.6268-1.6301-2.5817 1.3795-3.4228 2.0136-0.56268 1.7885-0.69484-1.3241-0.77758-4.3331-0.11518-5.0772-1.8141-1-2.2833 1.5125-0.17403 2.6466-0.8515 2.5203-1.5055-0.12632-0.65398 0.76629-1.5052 1.9836-1.8915l2.2133-0.70246-2.4836-0.95633-2.4836-0.95633 2.5-1.0162c1.4675-0.59651 1.9837-1.21 1.25-1.4855-1.8374-0.68977-1.5222-2.3026 0.45-2.3026 1.2215 0 1.3948-0.30522 0.61567-1.0843-1.141-1.141-0.62259-4.9157 0.67512-4.9157 0.41664 0 0.59628-2.642 0.39919-5.871-0.30997-5.0785-0.0371-6.2176 2.0209-8.4383 2.4152-2.6061 2.4562-3.9607 0.0925-3.0536-1.9998 0.76741-3.0273-1.7644-1.1438-2.8184 2.3032-1.2889 2.0415-2.8186-0.48204-2.8186-1.7732 0-1.9176-0.2468-0.87756-1.5 0.68469-0.825 2.2023-1.5613 3.3724-1.6362 2.0378-0.13044 2.0326-0.15448-0.12244-0.56955-2.2798-0.43911-3.1916-2.2943-1.1276-2.2943 0.77886 0 0.74392-0.4561-0.11414-1.49-1.0221-1.2316-0.83848-1.6373 1.059-2.3392 1.8992-0.70258 1.3578-0.96182-3.1358-1.5013-2.9873-0.35865-7.9065-0.6629-10.932-0.6761-4.0229-0.01756-5.0972-0.29432-4-1.0305 0.825-0.55359 5.1-0.95038 9.5-0.88176 9.8571 0.15371 10.97-0.04438 6.5-1.1572-1.925-0.47929-6.0291-0.60671-9.1202-0.28316-6.7098 0.70231-8.9669-1.088-2.6196-2.0778 5.2069-0.81195 9.4873-2.9829 7.862-3.9874-0.63142-0.39023-3.6373 0.22182-6.6797 1.3601-4.9678 1.8587-5.8148 1.9232-8.3099 0.63294-1.528-0.79018-3.3631-2.1414-4.0779-3.0026-1.3177-1.5878-5.0571-2.1917-5.0518-0.81594 0.002 0.4125 1.3503 1.65 2.9971 2.75 3.5298 2.3577 3.9485 4.0382 0.75 3.0099-1.2375-0.39788-5.2972-1.0601-9.0216-1.4715-7.1325-0.788-10.086-1.9943-5.1451-2.1017 2.8371-0.06165 2.8524-0.08911 0.56215-1.0064-1.5074-0.60377-2.1483-1.4804-1.7814-2.4366 0.31522-0.82146 0.18991-1.4936-0.27847-1.4936-1.0507 0-0.85012-5.0232 0.2714-6.7979 0.45111-0.71383 0.56944-1.9513 0.26297-2.75-0.39021-1.0169 0.15063-1.4521 1.8044-1.4521 1.2989 0 2.6206-0.675 2.9372-1.5 0.69441-1.8096 3.6521-2.0147 3.6051-0.25-0.0461 1.7322-3.5287 5.75-4.984 5.75-0.65818 0-0.93768 0.675-0.62109 1.5 0.37311 0.97233-0.029 1.5054-1.143 1.5153-1.4752 0.01315-1.5062 0.15262-0.21862 0.98469 0.825 0.53316 2.5624 0.97627 3.8608 0.98469l2.3608 0.01531-2.19 1.7733-2.19 1.7733 2.0792 1.8816c2.0445 1.8502 2.0792 1.8457 2.0792-0.27334 0-1.1852 0.3995-2.155 0.88779-2.155 0.48828 0 3.1774-1.575 5.9759-3.5 5.5687-3.8306 10.905-4.5248 18.524-2.4095 3.4368 0.95424 4.129 0.83769 5.9722-1.0056 1.8967-1.8967 1.923-2.0849 0.29126-2.0849-2.351 0-5.6389-3.1706-3.8919-3.753 2.0054-0.66847 1.4221-2.247-0.83036-2.247-1.1393 0-2.6591-0.58771-3.3774-1.306-1.7274-1.7274-14.381-1.4414-17.316 0.39123-1.7207 1.0746-2.4448 1.1051-3.4065 0.1435-0.96162-0.96162-0.80886-1.5227 0.71861-2.6396 3.0035-2.1962 9.219-3.7545 13.841-3.4702 2.306 0.14181 4.6963-0.05338 5.3118-0.43374 0.61545-0.38037 1.896-0.39341 2.8457-0.02899 1.2174 0.46717 1.5853 0.24691 1.2473-0.74675-0.2651-0.77932-1.779-1.4094-3.3864-1.4094-1.5989 0-3.0108-0.45-3.1377-1-0.12685-0.55 0.65193-1 1.7306-1s1.9405-0.45 1.9151-1-0.8042-0.80645-1.7306-0.56989c-3.106 0.79308-6.6798 0.57913-7.1844-0.43011-0.27741-0.55482 1.1694-1.1382 3.25-1.3104 2.0625-0.17071 3.75-0.70491 3.75-1.1871 0-0.48222-1.575-0.62118-3.5-0.3088-2.2715 0.36861-3.5 0.17104-3.5-0.56287 0-0.62196 1.125-1.1308 2.5-1.1308s2.5-0.45 2.5-1c0-1.2528-3.5153-1.2862-7.7431-0.07367-1.982 0.56843-3.4511 0.56843-3.8024 0-0.31488-0.50948-1.896-0.92633-3.5135-0.92633-2.8783 0.4084-4.2799-3.0844-0.69098-2.5926 6.2854 1.7898 7.75 1.8467 7.75 0.30089 0-0.84791 0.5625-1.8068 1.25-2.131 0.6875-0.32412 0.0401-0.35997-1.4387-0.07966-3.3523 0.63543-4.7296-1.2224-1.7291-2.3324 2.056-0.76057 1.8813-1.0223-2.4974-3.7415-2.5895-1.6081-5.9828-3.9363-7.5408-5.1738s-3.2683-2.25-3.8008-2.25c-0.53248 0-2.6786-1.3593-4.7692-3.0207-3.7443-2.9756-3.8322-2.9926-5.8875-1.1397-1.1476 1.0345-5.2365 3.9587-9.0865 6.4982s-8.844 5.9773-11.098 7.6397c-2.2538 1.6624-4.6304 3.0225-5.2814 3.0225-0.65093 0-1.4808 0.77459-1.844 1.7213-0.36328 0.94672-2.0367 2.9845-3.7186 4.5284-1.682 1.5439-3.7331 3.4343-4.5581 4.201-0.825 0.76666-2.2724 2.7104-3.2166 4.3193l-1.7166 2.9254 7.4769-0.47984c6.8812-0.4416 7.9906-0.22695 13.924 2.694 7.0914 3.4911 13.416 10.807 11.232 12.991-0.79895 0.79895-0.63483 1.0992 0.60079 1.0992 1.0333 0 1.7 0.78431 1.7 2 0 1.1-0.3876 2-0.86133 2s-0.64627 1.125-0.38342 2.5c0.32044 1.6763 0.0276 2.505-0.88867 2.5153-1.1416 0.01279-1.1385 0.15977 0.0188 0.89267 0.91707 0.58079 1.1641 1.7587 0.73095 3.4847-0.49034 1.9537-1.2912 2.6073-3.1944 2.6073-1.4387 0-2.272-0.43359-1.9219-1 0.33992-0.55 1.2665-1 2.059-1 0.79254 0 1.441-0.45 1.441-1s-1.125-1-2.5-1-2.5-0.45-2.5-1 0.40186-1 0.89301-1c1.0506 0 2.3828-3.0575 1.651-3.7893-0.27669-0.2767-2.5272 1.3627-5.0012 3.6431s-5.3816 4.1462-6.4614 4.1462-2.2414 0.45-2.5814 1c-1.3537 2.1904-16.397-0.4065-18.074-3.1201-0.85638-1.3857-6.8425-1.0269-8.9831 0.53831-2.5948 1.8974-1.058 3.249 1.8964 1.6678 2.6888-1.439 7.8332-1.115 8.3715 0.52719 0.21084 0.6433-1.3624 1.3449-3.7267 1.6621-2.6235 0.35189-4.9521 1.4774-6.49 3.1367-1.6944 1.8282-1.9721 2.5879-0.94617 2.5879 1.9387 0 1.8324 0.96845-0.29775 2.7115-1.5806 1.2934-1.4355 1.3791 1.5 0.88524 4.125-0.69396 4.3046 1.1396 0.25 2.5531-3.555 1.2393-3.888 2.5849-0.75 3.0306 1.2375 0.17575 2.25 0.76955 2.25 1.3196 0 0.55-1.0125 1.4442-2.25 1.9871-2.9782 1.3066-2.8582 2.5129 0.25 2.5129 3.4119 0 3.1417 1.6168-0.59293 3.5481-1.7011 0.87968-2.8646 1.8277-2.5856 2.1067 0.27901 0.279 1.4185 0.0196 2.5322-0.57644 1.341-0.71771 2.2346-0.74444 2.6458-0.07915 0.34147 0.55252-0.64372 1.5368-2.1893 2.1872l-2.8102 1.1826 3.9858 0.56549 3.9858 0.56549-2.9858 2.3818-2.9858 2.3818 3.8851-0.70247c3.5873-0.64864 3.8436-0.54385 3.3439 1.3672-0.29768 1.1383-0.1238 2.3276 0.38639 2.643 0.51018 0.31531-0.0946 1.4258-1.3439 2.4677l-2.2715 1.8944 2.25 0.03327c1.2375 0.0183 2.25 0.43079 2.25 0.91664s-1.0125 1.202-2.25 1.5914c-2.0713 0.65179-1.972 0.79365 1.25 1.7863 4.4923 1.384 4.3522 1.2124 3.0205 3.7006-1.0457 1.9539-0.91442 2.108 1.5641 1.8356 3.5501-0.39014 4.1553 1.5445 0.94131 3.0089-3.306 1.5063-3.2106 2.9679 0.2241 3.4344l2.75 0.3735-2.75 1.1682c-3.1782 1.3501-3.7042 2.7005-0.751 1.9282 2.6208-0.68535 3.767 1.2562 1.6538 2.8014-2.4583 1.7975-1.9996 3.277 0.84722 2.7328 2.7878-0.53291 3.394 1.1556 0.91338 2.5438-1.3472 0.75392-1.1215 1.2792 1.495 3.4809 1.9754 1.6622 2.8655 3.1562 2.4796 4.1618-0.39292 1.0239-0.0439 1.5688 1.005 1.5688 0.88385 0 1.607 0.45 1.607 1s-0.45 1-1 1-1 0.35964-1 0.7992 1.6268 0.60928 3.6151 0.37716 3.9008-0.02018 4.25 0.47099c1.485 2.0886 14.895 7.88 19.561 8.4474 5.9896 0.72849 9.7595 0.30434 18.666-2.1zm-21.092-25.089-2.5-2.0149 8.3805 0.67014c6.0591 0.4845 8.1895 0.3611 7.691-0.4455-0.37922-0.6136-1.2772-1.1156-1.9956-1.1156-0.71837 0-2.4503-0.9-3.8487-2-1.6046-1.2622-3.96-1.9709-6.3849-1.921-2.1132 0.04342-3.1673 0.30407-2.3423 0.57923 4.3513 1.4512 4.4546 1.6013 1.6547 2.4041-1.6485 0.47264-3.96 0.39195-5.4956-0.19185-3.2253-1.2263-9.1591-5.6487-9.1591-6.8263 0-1.2351 8.4191-5.9838 11.706-6.6023 1.5369-0.28929 5.1928 0.11134 8.1241 0.89029 4.5092 1.1982 5.4108 1.2047 5.857 0.04209 0.82312-2.145 6.702-1.6429 9.8614 0.84225 1.5498 1.219 4.1979 2.9065 5.8849 3.75 3.3922 1.6961 3.6557 3.0284 0.89434 4.5217-1.005 0.54349-4.1621 2.4617-7.0159 4.2627s-6.4538 3.4726-8 3.7146c-9.5903 1.5011-10.819 1.4494-13.311-0.5596zm15-6.9059c0-0.55-0.45-1-1-1s-1 0.45-1 1 0.45 1 1 1 1-0.45 1-1zm8-1c0-0.55-0.45-1-1-1s-1 0.45-1 1 0.45 1 1 1 1-0.45 1-1zm-16.5-3c-0.33992-0.55-1.604-0.99311-2.809-0.98469-1.7812 0.01245-1.9105 0.1966-0.69098 0.98469 1.9701 1.2732 4.2869 1.2732 3.5 0zm4.5-1c0-0.55-0.45-1-1-1s-1 0.45-1 1 0.45 1 1 1 1-0.45 1-1zm-15.271-0.60417c-0.33229-0.33229-1.1948-0.36781-1.9167-0.07894-0.79773 0.31922-0.56078 0.55618 0.60417 0.60416 1.0542 0.04342 1.6448-0.19292 1.3125-0.52522zm23.324-1.8958c-0.0784-1.4843-2.3156-1.2116-2.8346 0.3455-0.28038 0.84112 0.17677 1.216 1.2195 1 0.9174-0.19002 1.6442-0.7955 1.6152-1.3455zm-15.053-10.5c-1.925-1.0539-4.5125-1.935-5.75-1.9581-4.3058-0.08022-9.0084-8.0419-4.75-8.0419 0.825 0 1.5 0.75344 1.5 1.6743 0 1.3859 0.43059 1.2698 2.5-0.67431l2.5-2.3486 2.25 2.0253c3.1877 2.8694 5.3612 3.4276 8.5087 2.1851 1.5077-0.59518 3.9788-1.0626 5.4913-1.0388 1.8284 0.02879 2.75-0.47285 2.75-1.4968 0-0.98976 0.56197-1.3245 1.5726-0.93663 1.1152 0.42796 1.4763 0.09552 1.2414-1.143-0.20873-1.1006-1.4374-1.8674-3.3226-2.0734-3.6205-0.39569-5.8701-2.173-2.7505-2.173 1.1775 0 2.4191-0.45 2.759-1 0.33992-0.55-0.28197-1-1.382-1s-2.2781-0.45-2.618-1c-0.33992-0.55 0.0623-1 0.89393-1 2.2777 0 6.6061 2.183 6.6061 3.3318 0 0.55591 0.73028 1.8177 1.6228 2.804 1.5159 1.675 1.3449 2.1252-2.5931 6.8287-4.1184 4.919-4.3425 5.0355-9.6819 5.0355-3.6294 0-5.2436 0.35969-4.8042 1.0706 0.40326 0.65249 2.2812 0.82995 4.809 0.45443 3.867-0.57448 4.0162-0.51166 2.2062 0.92944-2.5427 2.0246-5.2674 1.895-9.5589-0.45443zm10-4c2.0097-0.64363 2.1078-0.8064 0.5-0.83003-1.1-0.01617-2.9 0.35734-4 0.83003-2.5482 1.095 0.0808 1.095 3.5 0zm-19.56-16.425c2.1369-1.733 8.5589-2.1639 8.5589-0.57422 0 0.55-1.2375 1.0061-2.75 1.0136-1.5125 0.00751-3.875 0.26591-5.25 0.57422-2.4129 0.54104-2.4324 0.50572-0.55887-1.0136zm19.559-1.5742c-1.1732-0.7582-0.91378-0.97271 1.191-0.98469 1.48-0.00842 2.9691 0.43469 3.309 0.98469 0.78917 1.2769-2.5241 1.2769-4.5 0zm-19-3c0-0.55 2.025-1 4.5-1s4.5 0.45 4.5 1-2.025 1-4.5 1-4.5-0.45-4.5-1zm18.926 0.75c-0.0409-0.1375-0.27127-1.3164-0.512-2.6198-0.37811-2.0472-0.12977-2.2873 1.8243-1.7637 1.2441 0.33337 2.8245 0.61227 3.512 0.61978s1.25 0.49397 1.25 1.081c0 0.62073-0.94153 0.8125-2.25 0.45828-2.078-0.56254-2.0589-0.49396 0.25 0.89718l2.5 1.5063-3.25 0.03543c-1.7875 0.01949-3.2834-0.07706-3.3243-0.21456zm-16.176-4.4557c1.2375-0.23836 3.2625-0.23836 4.5 0 1.2375 0.23835 0.225 0.43337-2.25 0.43337s-3.4875-0.19502-2.25-0.43337zm18.324-1.1715c-1.3342-0.37285-2.6331-1.2997-2.8864-2.0597-0.33308-0.99925 0.0616-1.1798 1.4259-0.65239 1.0376 0.40116 3.124 0.97912 4.6364 1.2843 1.5125 0.30523 2.75 0.94872 2.75 1.43 0 0.9943-2.3629 0.9934-5.9259-0.00226zm-23.425-2.3555c-0.84528-3.2324 0.38955-3.8805 4.8807-2.5619 2.1834 0.64107 4.3824 1.1946 4.8866 1.2301 1.9996 0.14075 1.5274 2.3468-0.62578 2.9235-5.0405 1.3502-8.5311 0.74241-9.1415-1.5918zm22.351-1.7672c-1.2819-0.82843-1.2456-0.9716 0.25-0.98469 0.9625-0.0084 1.75-0.69031 1.75-1.5153 0-0.825-0.45-1.5-1-1.5s-1-0.45-1-1 1.4625-1.0674 3.25-1.1498l3.25-0.14983-3-0.42712c-1.65-0.23491-3.45-0.90199-4-1.4824-0.69655-0.73507 0.0241-0.86344 2.375-0.42306 1.8562 0.34773 3.9938 0.63224 4.75 0.63224 0.75625 0 1.375 0.675 1.375 1.5 0 0.87695-0.91013 1.5-2.1911 1.5-2.1413 0-2.147 0.03338-0.25 1.4682 1.8758 1.4188 1.857 1.4714-0.55887 1.5634-2.4919 0.09488-2.4927 0.09812-0.25 0.99958 1.2375 0.49742 2.25 1.1439 2.25 1.4366 0 0.91363-5.4232 0.55122-7-0.46778zm-19.5-3c-0.36852-0.59628 0.84262-1 3-1s3.3685 0.40372 3 1c-0.33992 0.55-1.6899 1-3 1s-2.6601-0.45-3-1zm-23.5 76.882c0-0.55-0.45-0.72189-1-0.38197s-1 1.068-1 1.618 0.45 0.72189 1 0.38197 1-1.068 1-1.618zm70.5-1.882c0.33992-0.55-0.30852-1-1.441-1s-2.059 0.45-2.059 1 0.64844 1 1.441 1c0.79254 0 1.7191-0.45 2.059-1zm5.5-1.9686c0-0.53273-0.675-0.70959-1.5-0.39301-0.825 0.31659-1.5 0.75246-1.5 0.96862 0 0.21615 0.675 0.39301 1.5 0.39301s1.5-0.43588 1.5-0.96862zm-89.5-39.031c0.33992-0.55-0.057-1-0.88197-1-0.825 0-1.7781 0.45-2.118 1-0.33992 0.55 0.057 1 0.88197 1 0.825 0 1.7781-0.45 2.118-1zm98-40c-0.33992-0.55-1.4915-1-2.559-1s-1.941 0.45-1.941 1 1.1516 1 2.559 1c1.4514 0 2.2915-0.43284 1.941-1zm-73.395-1.0126c3.2836-0.91213 7.895-3.9716 7.895-5.2381 0-0.28384-0.97788-0.7718-2.1731-1.0844-1.5194-0.39733-3.1842 0.31957-5.5348 2.3834-4.7843 4.2007-10.855 4.1527-15.726-0.12443-3.3106-2.9067-3.6949-3.0068-6.9816-1.8184-3.9579 1.4312-3.8672 2.7795 0.18279 2.7186 1.5029-0.02256 4.7576 0.87597 7.2326 1.9967 5.0467 2.2854 9.7653 2.6498 15.105 1.1665zm77.421-3.7943c-0.30789-0.30789-1.1148-0.00064-1.7931 0.68278-0.98026 0.98762-0.8654 1.1025 0.5598 0.5598 0.98622-0.37553 1.5412-0.93469 1.2333-1.2426zm-2.5265-1.8001c0-0.21615-0.92656-0.39301-2.059-0.39301-1.1325 0-1.793 0.43035-1.468 0.95633 0.53361 0.8634 3.527 0.38531 3.527-0.56332zm-86.5-1.393c0.33992-0.55-0.11008-1-1-1s-1.3399 0.45-1 1c0.33992 0.55 0.78992 1 1 1s0.66008-0.45 1-1zm67.5-1c0-0.55-0.47656-1-1.059-1-0.58246 0-0.7809 0.45-0.44098 1s0.81648 1 1.059 1c0.24254 0 0.44098-0.45 0.44098-1zm-45.271-1.6042c-0.33229-0.33229-1.1948-0.36781-1.9167-0.07894-0.79773 0.31922-0.56078 0.55618 0.60417 0.60416 1.0542 0.04342 1.6448-0.19292 1.3125-0.52522zm-27.93-2.7553c4.3298-2.1798 11.95-2.8179 15.019-1.2575 3.595 1.8281 8.2284 3.1239 6.2105 1.7368-0.80907-0.55612-1.1574-1.3247-0.77417-1.708 0.38328-0.38328 1.4559-0.07025 2.3837 0.69563 1.31 1.0814 1.7808 1.1133 2.1075 0.1425 0.2314-0.6875 1.2832-1.25 2.3374-1.25s1.9167-0.48032 1.9167-1.0674c0-0.61231-0.85269-0.79675-2-0.43261-2.4638 0.78197-6.2382-0.30561-5.4555-1.572 0.31544-0.5104 1.4735-0.928 2.5735-0.928 3.644 0 1.0588-1.6422-4.5673-2.9012-6.2158-1.391-20.065-0.74695-22.209 1.0329-0.73774 0.61227-1.3414 1.903-1.3414 2.8683 0 0.96531-0.675 2.3153-1.5 3-3.5544 2.9499 0.31786 4.1486 5.2997 1.6405zm43.93-56.245c-0.33229-0.33229-1.1948-0.36781-1.9167-0.07894-0.79773 0.31922-0.56078 0.55618 0.60417 0.60416 1.0542 0.04342 1.6448-0.19292 1.3125-0.52522zm230.27-4.3958c0-0.55-0.47656-1-1.059-1-0.58246 0-0.7809 0.45-0.44098 1s0.81648 1 1.059 1c0.24254 0 0.44098-0.45 0.44098-1zm-583.32 271.13c-2.4541-3.2269-4.7924-6.9083-5.1963-8.1809-1.1108-3.4997-12.046-15.827-20.485-23.093-8.3142-7.1585-12.181-9.8132-15.645-10.739-3.2338-0.86484-2.4671-2.6101 0.98741-2.2478l2.8429 0.29819-2.2848-3.0903c-3.7006-5.0053-14.97-12.746-21.958-15.083-8.7235-2.917-9.9863-4.4259-3.0608-3.6571 3.9767 0.44142 6.9794 1.6529 11.5 4.6398 8.0599 5.3255 19.618 16.146 19.618 18.365 0 1.0503 1.1925 2.175 2.9591 2.7908 1.6275 0.56736 3.2206 1.8552 3.5401 2.862 0.31952 1.0067 2.4754 3.2936 4.7909 5.0819 4.7605 3.6767 14.089 14.292 21.472 24.434 0.40563 0.55718 1.3378 1.7738 2.0714 2.7035 1.3122 1.663 4.433 10.783 3.6898 10.783-0.20935 0-2.3885-2.6402-4.8426-5.8671zm50.319-13.937c0-1.0581 5.7673-6.3822 9.25-8.5391 4.5798-2.8364 3.0888-0.18944-2.6595 4.7215-5.4273 4.6367-6.5905 5.3105-6.5905 3.8176zm-165.5-14c-4.1528-0.48299-5.688-2.1991-1.95-2.1797 2.7891 0.0145 6.4388 1.4972 5.421 2.2023-0.25907 0.17949-1.821 0.16933-3.471-0.0226zm-13.515-3.0416c-1.9168-1.0156-4.7806-2.1637-6.3638-2.5513-1.5832-0.38763-4.5002-1.8067-6.4821-3.1535-1.982-1.3468-4.3131-2.4487-5.1803-2.4487-0.86721 0-2.4502-0.66069-3.5179-1.4682-1.8663-1.4116-1.8398-1.4694 0.68643-1.5 1.4452-0.0175 3.1471 0.59425 3.7822 1.3594 0.63504 0.76517 2.3776 1.6334 3.8724 1.9294 1.4948 0.29603 5.6428 1.2723 9.2178 2.1694 3.575 0.89717 8.8708 1.8853 11.768 2.1959 8.3734 0.8975 7.8191 2.7372-0.61168 2.0303-7.7584-0.65043-9.3985 0.30324-3.4068 1.9809 2.189 0.61291 2.9113 1.1026 1.7352 1.1764-1.1081 0.0695-3.5831-0.70457-5.5-1.7202zm204.01-2.6183c0-0.86851 0.86852-1.5352 2-1.5352 1.1 0 2 0.20917 2 0.46482s-0.9 0.94648-2 1.5352c-1.5963 0.85431-2 0.76049-2-0.46482zm-185.99-1.0242c-0.67967-0.81894-1.5223-1.3312-1.8724-1.1384-0.87113 0.47971-10.646-0.93923-16.118-2.3398-2.4649-0.63084-6.7399-2.8804-9.5-4.9991-3.9472-3.0299-6.2549-4.004-10.812-4.5635-3.6328-0.4461-5.6437-1.1326-5.3924-1.8408 0.43707-1.2317 1.2785-1.2476 6.982-0.13198l3.7965 0.74262-2.1322-4.0907c-1.9369-3.7159-2.4679-4.0778-5.7965-3.9498-2.0154 0.0775-6.1393-0.17695-9.1643-0.56543-8.3731-1.0753-17.649-0.89211-20.056 0.39609-1.5146 0.81057-2.4732 0.8403-3.2139 0.0997-2.9777-2.9778 15.242-4.6854 23.983-2.2478 5.7278 1.5975 9.6749 0.58365 8.8038-2.2612-0.35716-1.1664-1.1834-5.4958-1.8361-9.6208-0.65267-4.125-1.5197-8.0146-1.9267-8.6435-1.2477-1.928 3.74-13.924 8.6286-20.754 8.3973-11.731 21.95-17.446 38.572-16.266 13.48 0.9569 15.901 2.1638 29.261 14.589 3.209 2.9844 6.0757 6.5844 6.3704 8 0.29475 1.4156 1.1834 4.0515 1.9748 5.8577 1.8582 4.2408 1.8189 9.449-0.14325 19.008-1.4703 7.1627-6.8938 19.208-8.6487 19.208-0.42305 0-0.76918 0.45-0.76918 1s1.9957 1 4.4349 1c4.9198 0 9.5651 1.4229 9.5651 2.9299 0 0.53869-1.6875 1.2939-3.75 1.6782s-6.779 1.7547-10.481 3.0453c-3.7022 1.2906-7.7747 2.3466-9.05 2.3466s-2.7463 0.39924-3.2688 0.88721c-1.018 0.95067-13.044 4.1128-15.641 4.1128-0.86002 0-2.1198-0.67005-2.7994-1.489zm-1.5091-5.511c0.33992-0.55 0.14148-1-0.44098-1s-1.059 0.45-1.059 1 0.19844 1 0.44098 1 0.7191-0.45 1.059-1zm18-6c0.33992-0.55 0.14148-1-0.44098-1s-1.059 0.45-1.059 1 0.19844 1 0.44098 1 0.7191-0.45 1.059-1zm-30.5-0.44098c0-0.24254-0.45-0.7191-1-1.059-0.55-0.33992-1-0.14148-1 0.44098s0.45 1.059 1 1.059 1-0.19844 1-0.44098zm-4.8167-4.7757c-0.71756-0.71756-1.1833-0.7766-1.1833-0.15 0 1.3348 1.1826 2.5174 1.85 1.85 0.28417-0.28416-0.0158-1.0492-0.66667-1.7zm-8.1833 0.27569c0-1.1799-1.9504-2.442-2.6667-1.7257-0.71631 0.71632 0.54583 2.6667 1.7257 2.6667 0.51754 0 0.94098-0.42344 0.94098-0.94098zm14-1.012c0-1.0741 0.50603-3.2116 1.1245-4.75 2.2864-5.6871 2.7117-6.9228 4.404-12.797 1.727-5.9944 4.321-10.524 3.1399-5.4826-2.3284 9.9384-2.7862 13.265-1.942 14.109 0.57811 0.57811 1.4453-0.6961 2.2774-3.3464 1.9262-6.1347 3.2355-7.1204 2.3646-1.78-0.79377 4.867-0.82243 5.4873-0.53143 11.5 0.1447 2.9897 0.43843 3.6212 1.163 2.5 0.53316-0.825 0.98241-2.85 0.99834-4.5 0.0364-3.7706 1.0102-7.5 1.9583-7.5 0.39783 0 0.76367 2.7433 0.81297 6.0963s0.32441 6.331 0.61136 6.618c0.65582 0.65582 1.129-1.8101 2.6316-13.714 1.5264-12.093 3.334-15.526 2.4405-4.6346-0.52126 6.3538-0.38656 7.7793 0.70087 7.4173 0.74037-0.24643 1.7961-2.8858 2.3461-5.8654l1-5.4173 0.5 9.5c0.56242 10.686 2 9.9084 2-1.0818 0-3.9455 0.4297-6.9182 1-6.9182 0.55 0 0.94671 0.3375 0.88158 0.75-0.0651 0.4125-0.0651 2.2391 0 4.059 0.17027 4.7577 2.0924 2.9431 2.2436-2.118l0.12516-4.191 0.6947 4.2699c0.38209 2.3484 1.2258 4.8009 1.8748 5.45 0.90684 0.90684 1.2048-0.082 1.2865-4.2699 0.0974-4.9907 0.19796-5.2182 1.193-2.7 1.8534 4.6903 2.8274 3.0426 2.2168-3.75-0.62549-6.9575 0.43352-8.4498 2.4838-3.5 0.68345 1.65 1.6466 3 2.1404 3 0.8679 0 0.64453-1.6506-1.2103-8.9438-1.0512-4.1331-0.44054-5.1123 1.5485-2.4832 2.1392 2.8276 1.9525 0.07813-0.43891-6.4646-2.75-7.5238-7.7204-12.876-16.54-17.811-4.5008-2.5183-5.8986-2.7874-14-2.6948-8.2239 0.09401-9.6086 0.41012-16.058 3.6657-8.1219 4.1001-8.3232 4.3018-12.813 12.84-5.4569 10.376-5.9174 18.332-0.5517 9.5328 1.0534-1.7275 1.9169-2.5723 1.919-1.8773 0.004 1.4076-2.0745 5.4233-3.2645 6.3067-0.94267 0.69977-2.8552 7.1395-2.2886 7.7061 0.22489 0.2249 2.2825-2.5578 4.5725-6.1838s4.6518-6.5927 5.2483-6.5927c0.59657 0 0.18268 1.0125-0.91975 2.25s-2.5004 4.05-3.1065 6.25c-1.4898 5.4072-2.6056 13.5-1.8612 13.5 0.33193 0 2.685-4.1625 5.229-9.25 5.1724-10.344 5.1576-10.32 6.005-9.4729 0.62909 0.62909-4.3302 14.479-5.7911 16.173-1.2714 1.4742-0.97104 2.55 0.71206 2.55 0.84226 0 1.7738-0.7875 2.07-1.75 1.0592-3.4412 5.9146-12.243 6.7556-12.247 0.47134-0.0019 0.51483 0.784 0.0966 1.7465-3.3222 7.6463-7.0244 22.937-5.8512 24.167 0.82293 0.86242 1.535-0.9072 4.0328-10.023 3.0101-10.985 6.0733-17.585 7.4994-16.159 0.63013 0.63013 0.45761 2.1685-0.48997 4.369-1.5181 3.5253-5.5243 16.9-6.1096 20.396-0.18413 1.1-0.43314 2.45-0.55336 3-0.36644 1.6764-0.031 2.5 1.0182 2.5 0.55 0 1-0.87883 1-1.953zm15-15.047c0-1.1 0.40787-2 0.90638-2s0.67103 0.9 0.38337 2-0.69553 2-0.90638 2-0.38337-0.9-0.38337-2zm13-9.5c0-0.825 0.45-1.5 1-1.5s1 0.675 1 1.5-0.45 1.5-1 1.5-1-0.675-1-1.5zm-45 17.441c0-0.51754-0.45-0.94098-1-0.94098s-1 0.70156-1 1.559c0 0.85746 0.45 1.2809 1 0.94098s1-1.0415 1-1.559zm-5-17.5c0-0.85746-0.45-1.2809-1-0.94098s-1 1.0415-1 1.559c0 0.51754 0.45 0.94098 1 0.94098s1-0.70156 1-1.559zm-4-2.941c0-0.825-0.17685-1.5-0.39301-1.5s-0.65203 0.675-0.96862 1.5c-0.31658 0.825-0.13972 1.5 0.39302 1.5 0.53273 0 0.96861-0.675 0.96861-1.5zm-2.3135 41.853c-0.35577-0.35577-2.3054-0.69327-4.3325-0.75-3.7447-0.10479-6.2011-2.6031-2.5594-2.6031 2.1077 0 9.2055 2.709 9.2055 3.5134 0 0.70496-1.5561 0.59716-2.3135-0.16028zm-34.655-1.0486c-0.0175-0.65749-1.2278-1.7825-2.6896-2.5-2.8878-1.4175-5.149-4.3311-4.1425-5.3376 0.34594-0.34594 1.6174-0.10001 2.8254 0.54651 2.107 1.1276 6.3642 0.93647 12.221-0.54867 4.2961-1.0895 13.422 0.42789 15.978 2.6568l2.2759 1.9841-2.5-0.76322c-3.729-1.1384-16.605-0.62321-19.219 0.76896-1.2547 0.66838-2.8294 1.9292-3.4994 2.8019-0.73964 0.96336-1.2307 1.117-1.25 0.39123zm283.97-11.83c0-1.6121 2.6616-3.1404 3.6856-2.1163 0.71223 0.71222-1.5476 3.6477-2.8081 3.6477-0.48266 0-0.87756-0.68912-0.87756-1.5314zm-271.42-0.23c-0.17395-0.17395-3.2977-0.33916-6.9416-0.36713-3.6439-0.028-6.9103-0.51204-7.2587-1.0757-1.1551-1.869 2.055-2.898 7.1228-2.2832 2.75 0.33363 6.8 0.82328 9 1.0881 6.5863 0.7929 8.6134 1.4012 7.9964 2.3995-0.51836 0.83872-9.1121 1.0452-9.919 0.23838zm288.42-14.01c0-1.0632 2.1483-3.2352 3.2-3.2352 1.5522 0 0.77494 1.943-1.2 3-1.1 0.5887-2 0.69453-2 0.23518zm12.02-9.7594c0.69572-0.83829 1.4709-1.3182 1.7226-1.0665 0.69349 0.6935-0.71555 2.5907-1.9241 2.5907-0.6631 0-0.58723-0.57378 0.20152-1.5242zm13.98-8.4407c0-0.53065 0.93406-1.4647 2.0757-2.0757 1.8991-1.0164 1.9812-0.93426 0.96482 0.96482-1.142 2.1339-3.0405 2.8275-3.0405 1.1109zm19-14.035c0-0.55 0.47656-1 1.059-1 0.58246 0 0.7809 0.45 0.44098 1s-0.81648 1-1.059 1c-0.24254 0-0.44098-0.45-0.44098-1zm11.766-10.029c3.2127-2.9224 5.2342-3.7562 5.2342-2.1588 0 1.1466-5.6563 5.194-7.2095 5.1588-0.70977-0.01613 0.17911-1.3661 1.9753-3zm10.234-6.8636c0-1.4566 4.1083-5.107 5.7476-5.107 1.8339 0 0.83121 1.4517-2.7778 4.0215-1.6334 1.1631-2.9698 1.6516-2.9698 1.0855zm17.459-13.174c-0.36253-0.58659-0.50159-1.1491-0.30902-1.25 0.19258-0.10091 1.8736-0.98502 3.7356-1.9647 4.3748-2.3018 5.4102-1.2334 1.8088 1.8663-3.0878 2.6577-4.2424 2.9551-5.2354 1.3484zm20.541-13.933c2.6115-2.0427 5-2.5971 5-1.1605 0 0.94846-4.462 3.1722-6.297 3.1383-0.66162-0.01223-0.0779-0.90222 1.297-1.9778zm-229-4.9412c0-1.092 8.0415-2.9769 9.4448-2.2138 1.0451 0.56832-4.9288 2.9587-7.6948 3.0789-0.9625 0.04184-1.75-0.34744-1.75-0.86507zm22.6-4.7922c-0.34988-0.34987 2.4095-1.4292 6.1319-2.3985 4.2616-1.1097 7.1199-1.4116 7.7181-0.81525 0.59883 0.59702 0.11246 0.94713-1.3157 0.94713-1.2462 0-3.0237 0.38662-3.95 0.85915-2.4726 1.2613-7.849 2.1428-8.5843 1.4075zm32.4-7.2666c0-0.55 0.92656-1 2.059-1 1.1325 0 1.7809 0.45 1.441 1-0.33992 0.55-1.2665 1-2.059 1-0.79254 0-1.441-0.45-1.441-1zm14.25-3.25c0.63003-1.8922 3.7505-2.1612 3.7505-0.32332 0 0.92763-0.855 1.5733-2.0833 1.5733-1.222 0-1.9113-0.51682-1.6671-1.25zm14.75-2.75c0-0.55 0.675-1 1.5-1s1.5 0.45 1.5 1-0.675 1-1.5 1-1.5-0.45-1.5-1zm11-3.059c0-0.58246 0.45-0.7809 1-0.44098s1 0.81648 1 1.059c0 0.24254-0.45 0.44098-1 0.44098s-1-0.47656-1-1.059zm14.15-1.891c0.22-0.66 0.72625-1.1662 1.125-1.125 1.1957 0.12369 0.96414 1.4953-0.325 1.925-0.66 0.22-1.02-0.14-0.8-0.8zm15.85-3.109c0-0.58246 0.45-0.7809 1-0.44098s1 0.81648 1 1.059c0 0.24254-0.45 0.44098-1 0.44098s-1-0.47656-1-1.059zm51.694-10.58c-1.1334-1.1334 0.35596-2.3605 2.8652-2.3605 2.7445 0 3.2713 1.4674 0.85919 2.393-2.0175 0.77419-2.9256 0.76627-3.7244-0.03249zm21.306-6.3605c0-0.55 0.9-1 2-1s2 0.45 2 1-0.9 1-2 1-2-0.45-2-1zm14-3.8834c0-1.0622 4.006-2.231 5.1735-1.5094 1.8148 1.1216 0.66005 2.3927-2.1735 2.3927-1.65 0-3-0.39752-3-0.88337zm-415.62-17.564c-1.3779-3.5908-0.72917-42.22 0.72412-43.118 0.53761-0.33226 0.88741-2.4785 0.77733-4.7693-0.26069-5.4252 2.4989-9.8875 8.4476-13.66l4.6088-2.9228 27.247-0.50441c14.986-0.27742 34.091-0.06935 42.456 0.46237 10.732 0.6822 16.04 0.64644 18.033-0.1215 1.8514-0.71336 13.677-1.0388 34.324-0.94452 17.325 0.07907 36.9 0.16629 43.5 0.19382s21.45-0.2723 33-0.66628 21.45-0.72431 22-0.73408c0.55-0.01 5.275 0.46533 10.5 1.0558 5.225 0.59043 12.2 0.75876 15.5 0.37407s9.15-0.41447 13-0.06617c3.85 0.34829 20.883 0.43837 37.85 0.20017 25.024-0.35129 30.769-0.18742 30.418 0.86766-1.0954 3.2978-35.611 4.9151-58.267 2.7302-6.0633-0.58473-16.836-0.77431-24.001-0.42237-7.2774 0.35745-16.962 0.17929-22-0.40474-6.3914-0.74089-10.884-0.72587-15.5 0.0518-4.0116 0.67586-28.018 1.2063-62.708 1.3856-30.915 0.15981-56.58 0.52015-57.034 0.80075-0.45402 0.2806-8.2353 0.08167-17.292-0.44207-21.166-1.224-25.313-1.2633-49.862-0.47167-18.184 0.58636-20.667 0.87122-22.9 2.6271-4.5226 3.5575-7.4185 11.608-7.0783 19.679 0.13367 3.1719-0.34721 10.463-1.0686 16.203-0.72143 5.74-1.0501 13.237-0.73046 16.661 0.471 5.0437 0.28993 6.3361-0.95458 6.8137-2.1592 0.82857-2.366 0.76924-2.9905-0.85812zm410.62-21.29c-5.9348-0.51227-7.7333-2.2622-2.325-2.2622 5.3384 0 10.325 1.0263 10.325 2.125 0 0.48125-0.7875 0.79638-1.75 0.70029s-3.775-0.3495-6.25-0.56313zm-41.5-5.2622c0.33992-0.55 1.0415-1 1.559-1 0.51754 0 0.94098 0.45 0.94098 1s-0.70156 1-1.559 1c-0.85746 0-1.2809-0.45-0.94098-1zm-13.833-0.66667c-1.4225-1.4225-0.54354-2.3333 2.2515-2.3333 3.5145 0 6.0818 0.88941 6.0818 2.107 0 1.0287-7.3319 1.2278-8.3333 0.22634zm-23.639-2.2948c-1.27-0.80319-1.2457-1.0177 0.17727-1.5638 2.3674-0.90847 6.0678-0.18798 6.5497 1.2753 0.48985 1.4874-4.4932 1.7011-6.727 0.28848zm-22.528-1.2042c-3.3-0.49993-7.9125-1.1447-10.25-1.4329-7.426-0.91551-4.5759-2.0875 4-1.6448 9.7401 0.50276 13.965 1.3873 14.515 3.0394 0.4441 1.3323 0.2806 1.333-8.2653 0.03839zm-54-7.8343c-0.33992-0.55 0.30852-1 1.441-1s2.059 0.45 2.059 1-0.64844 1-1.441 1c-0.79254 0-1.7191-0.45-2.059-1zm-7.5-1c0-0.55 0.45-1 1-1s1 0.45 1 1-0.45 1-1 1-1-0.45-1-1zm-39-4.5733c0-0.93124 0.68037-1.4414 1.6671-1.25 2.5088 0.48655 2.8532 2.8233 0.4162 2.8233-1.2283 0-2.0833-0.64569-2.0833-1.5733zm-23.5-2.4267c-0.36058-0.58342 0.65628-1 2.441-1 1.6825 0 3.059 0.45 3.059 1s-1.0984 1-2.441 1c-1.3425 0-2.7191-0.45-3.059-1z"/>
  </g>
  <metadata id="metadata6">
    <rdf:RDF>
      <cc:Work>
        <dc:format>image/svg+xml</dc:format>
        <dc:type rdf:resource="http://purl.org/dc/dcmitype/StillImage"/>
        <cc:license rdf:resource="http://creativecommons.org/licenses/publicdomain/"/>
        <dc:publisher>
          <cc:Agent rdf:about="http://openclipart.org/">
            <dc:title>Openclipart</dc:title>
          </cc:Agent>
        </dc:publisher>
      </cc:Work>
      <cc:License rdf:about="http://creativecommons.org/licenses/publicdomain/">
        <cc:permits rdf:resource="http://creativecommons.org/ns#Reproduction"/>
        <cc:permits rdf:resource="http://creativecommons.org/ns#Distribution"/>
        <cc:permits rdf:resource="http://creativecommons.org/ns#DerivativeWorks"/>
      </cc:License>
    </rdf:RDF>
  </metadata>
</svg>
